<svg width="200" height="64" viewBox="0 0 200 64" fill="none" xmlns="http://www.w3.org/2000/svg">
<path d="M198.926 53.1101C198.337 55.9128 195.298 58.3041 189.705 60.0485C184.18 61.7713 176.449 62.7686 167.04 63.0024C148.235 63.4697 122.896 60.8842 95.4903 55.1227C68.085 49.3613 43.8497 41.5245 26.8243 33.5244C18.3061 29.5217 11.6314 25.496 7.26819 21.6944C2.85059 17.8454 1.03192 14.4328 1.62114 11.6301C2.21036 8.82745 5.24919 6.43611 10.8427 4.69177C16.3673 2.96891 24.098 1.97168 33.5069 1.73788C52.3124 1.27059 77.6517 3.85601 105.057 9.61749C132.462 15.379 156.698 23.2158 173.723 31.2159C182.241 35.2185 188.916 39.2442 193.279 43.0459C197.697 46.8949 199.515 50.3074 198.926 53.1101Z" stroke="#58C067" stroke-width="1.5"/>
</svg>
