<svg width="92" height="39" viewBox="0 0 92 39" fill="none" xmlns="http://www.w3.org/2000/svg">
<path d="M24.5873 28.5C25.5075 28.5 26.0099 29.7101 25.4172 30.5073L19.9581 37.8313C19.4048 38.5713 18.5919 39 17.7309 39H12.6444C12.0912 39 11.792 38.2727 12.1448 37.7963L13.113 36.4973H3.38032L2.05365 38.4855C1.83912 38.8095 1.5004 38.9969 1.14192 38.9969C0.173729 38.9969 -0.354117 37.7233 0.2697 36.8911L6.25948 28.8557C6.42884 28.6302 6.67724 28.5 6.93693 28.5C7.66801 28.5 8.08295 29.4401 7.64543 30.0976L5.04572 33.9978H14.9788L18.2023 29.672C18.7556 28.9319 19.5685 28.5032 20.4295 28.5032H24.5873V28.5Z" fill="#58B665"/>
<path d="M47.2396 30.5065L43.6463 35.331C43.0931 36.071 42.2802 36.4998 41.4192 36.4998H35.7682C35.2432 36.4998 34.7435 36.7602 34.4048 37.2144L33.3971 38.5642C33.191 38.8405 32.8862 38.9993 32.5672 38.9993H22.8487C21.9285 38.9993 21.426 37.7892 22.0188 36.992L27.4779 29.6649C28.0311 28.9249 28.8441 28.4961 29.705 28.4961H46.4126C47.33 28.4993 47.8324 29.7093 47.2396 30.5065ZM37.6368 31.002H30.3232C29.7982 31.002 29.2985 31.2656 28.9598 31.7166L28.5251 32.301C28.1695 32.7774 28.4715 33.5047 29.0247 33.5047H36.3384C36.8634 33.5047 37.363 33.2411 37.7017 32.7901L38.1364 32.2057C38.4921 31.7293 38.1901 31.002 37.6368 31.002Z" fill="#58B665"/>
<path d="M67.7325 28.4993C68.6753 28.4993 69.1919 29.7411 68.585 30.5542C68.3733 30.8368 68.0628 31.002 67.7325 31.002H56.5292C56.0042 31.002 55.5046 31.2656 55.1658 31.7166L54.7311 32.301C54.3755 32.7774 54.6775 33.5047 55.2308 33.5047H64.9917C65.5449 33.5047 65.8441 34.2321 65.4913 34.7085L63.1626 37.8305C62.6093 38.5705 61.7964 38.9993 60.9354 38.9993H50.6693C50.2995 38.9993 50.0991 38.5134 50.3362 38.1958L51.1237 37.1381C51.3128 36.8841 51.152 36.4966 50.8584 36.4966H46.0908C45.1706 36.4966 44.6682 35.2865 45.261 34.4893L48.8543 29.6649C49.4075 28.9249 50.2205 28.4961 51.0814 28.4961H67.7325V28.4993Z" fill="#58B665"/>
<path d="M85.4166 28.4996C86.3368 28.4996 86.8392 29.7096 86.2465 30.5068L80.7873 37.8308C80.2341 38.5708 79.4212 38.9996 78.5602 38.9996H73.4737C72.9205 38.9996 72.6213 38.2723 72.9741 37.7959L77.1404 32.206C77.4961 31.7296 77.194 31.0023 76.6408 31.0023H72.6297C72.0708 31.0023 71.543 31.2977 71.2071 31.8027L66.7529 38.4883C66.5383 38.8122 66.1996 38.9996 65.8411 38.9996C64.8729 38.9996 64.3451 37.726 64.9689 36.8939L71.7886 27.7437C72.6128 26.6384 73.8294 26 75.1109 26H80.8353C81.2051 26 81.4055 26.4859 81.1684 26.8035L80.3809 27.8612C80.1918 28.1153 80.3527 28.5027 80.6462 28.5027H85.4166V28.4996Z" fill="#58B665"/>
<path d="M89.8909 31.2876L84.491 38.5354C84.2709 38.8308 83.9491 38.9991 83.6075 38.9991C82.6281 38.9991 82.0946 37.7096 82.724 36.8648L87.023 31.0939C87.198 30.8589 87.4549 30.7255 87.7259 30.7255H89.6594C89.9163 30.7287 90.0574 31.0653 89.8909 31.2876ZM91.7285 28.8262C91.5535 29.0612 91.2966 29.1946 91.0256 29.1946H89.0921C88.8352 29.1946 88.6941 28.8548 88.8606 28.6325L89.9614 27.1556C90.1816 26.8602 90.5034 26.6919 90.845 26.6919C91.8244 26.6919 92.3579 27.9814 91.7285 28.8262Z" fill="#58B665"/>
<path d="M52.31 20.1665C52.31 20.1709 52.3057 20.1797 52.3057 20.184C52.3057 20.1753 52.3057 20.1709 52.31 20.1665Z" fill="#58C067"/>
<path d="M54.0374 18.5591L54.0332 18.5674C54.0332 18.5632 54.0374 18.5632 54.0374 18.5591Z" fill="#58C067"/>
<path d="M54.0283 5.50146C54.0921 5.54378 54.0921 5.54378 54.0283 5.50146V5.50146Z" fill="#58C067"/>
<path d="M47.5936 5.61572C47.0305 5.61572 46.5732 6.08961 46.5732 6.66927C46.5732 7.25316 47.0305 7.72281 47.5936 7.72281C48.1524 7.72281 48.6096 7.25316 48.6096 6.66927C48.6096 6.08961 48.1524 5.61572 47.5936 5.61572Z" fill="#2E8B3B"/>
<path d="M52.3354 20.1328C52.3269 20.1413 52.3142 20.154 52.3057 20.1624C52.3184 20.154 52.3269 20.1413 52.3354 20.1328Z" fill="#58C067"/>
<path d="M57.6612 9.25872C57.2844 9.27142 56.8991 9.23334 56.5223 9.27142C56.154 9.30526 56.0312 9.18679 56.0397 8.78907C56.0566 7.79476 56.027 6.79622 56.0185 5.80191C56.0101 5.75536 56.0058 5.71305 55.9974 5.66651C55.9 5.47188 55.7222 5.55227 55.5782 5.54804C55.2014 5.53535 54.8246 5.52688 54.4521 5.55227C54.1303 5.57343 53.9906 5.47188 54.016 5.11647C54.0414 4.76952 54.0287 4.42257 54.0202 4.07985C54.016 3.87252 53.9991 3.65674 53.7069 3.74136C53.1947 3.73713 52.6824 3.73713 52.1744 3.73289C52.1786 3.70328 52.1701 3.68635 52.1447 3.67789C52.1532 3.1617 52.1405 2.6455 52.1701 2.13354C52.1913 1.74427 52.0389 1.65965 51.6959 1.66811C50.6545 1.68927 49.6087 1.65119 48.5673 1.68927C48.1397 1.70196 48.0381 1.56234 48.0465 1.13076C48.0508 0.796506 48.2243 0.411475 47.911 0.111067C47.7756 -0.06664 47.585 0.0222133 47.4242 0.0222133C46.0821 0.0137511 44.74 0.0179822 43.3979 0.0179822C42.0813 0.0179822 42.0686 0.0179822 42.077 1.38886C42.0813 1.77812 41.9585 1.85428 41.6198 1.85428C40.5656 1.85428 39.5072 1.79505 38.4488 1.88813C38.3641 1.85428 38.2794 1.84582 38.2117 1.92621C38.0339 1.98122 38.1058 2.142 38.1016 2.25624C38.0889 2.58626 38.0677 2.92052 38.1058 3.24632C38.1482 3.6652 37.9788 3.76251 37.6232 3.73713C37.2591 3.70751 36.895 3.74136 36.5352 3.72443C36.2261 3.71174 36.1033 3.85137 36.1118 4.16447C36.1203 4.47757 36.0906 4.7949 36.116 5.10801C36.1499 5.47188 36.0059 5.58189 35.6884 5.54381C35.5953 5.53112 35.4979 5.53535 35.4048 5.54381C34.9687 5.58189 34.3971 5.34072 34.1304 5.65382C33.8722 5.95846 34.0839 6.54235 34.0458 6.99931C34.0161 7.37165 34.1558 7.49435 34.5072 7.48589C35.5953 7.46473 36.6833 7.48589 37.7714 7.46896C38.055 7.46473 38.1694 7.53666 38.1567 7.85399C38.1397 8.23056 38.1736 8.61136 38.1863 8.99216C38.1948 9.03447 38.2032 9.07679 38.2075 9.1191C38.3387 9.3095 38.5292 9.21218 38.6859 9.21218C40.3285 9.22064 41.9712 9.2291 43.6139 9.21218C43.9229 9.20795 44.0415 9.28411 44.0161 9.6226C43.9907 10.0034 44.0245 10.3884 44.0034 10.765C43.9864 11.0781 44.1092 11.1712 44.3929 11.167C45.1973 11.15 46.0017 11.1627 46.8061 11.1585C48.0592 11.1585 48.0508 11.1585 48.0211 12.4744C48.0169 12.7832 47.928 12.8763 47.6443 12.8679C46.8526 12.8509 46.0652 12.8636 45.2735 12.8636C43.889 12.8594 43.889 12.8594 44.0415 14.3614C44.033 14.4461 44.0288 14.5307 44.0203 14.6153C43.7832 14.7422 43.525 14.6999 43.2752 14.6999C41.7087 14.6915 40.1422 14.683 38.58 14.6365C38.1482 14.6238 38.0042 14.7634 38.0423 15.1992C38.0677 15.4784 38.0296 15.7662 38.0508 16.0454C38.0804 16.3628 37.9534 16.4347 37.6698 16.4305C36.7214 16.4178 35.7731 16.4262 34.8205 16.4262C33.8764 16.4305 34.0627 16.3754 34.0542 17.2597C34.0458 18.4021 34.0542 18.4021 35.138 18.4021C36.1499 18.3979 36.1499 18.3979 36.1499 19.4811C36.1457 20.5896 36.0991 20.3865 36.9924 20.395C38.0466 20.4077 38.072 20.4035 38.0339 21.512C38.0169 22.0113 38.1736 22.1424 38.6266 22.1298C39.6681 22.1001 40.7138 22.1298 41.7553 22.1128C42.094 22.1044 42.204 22.2228 42.1786 22.5656C42.1532 22.866 42.1956 23.1664 42.1659 23.4626C42.1278 23.8687 42.2506 24.0041 42.657 23.9999C44.0669 23.9703 45.4724 23.9872 46.8823 23.9872C48.1185 23.9872 48.1397 23.9872 48.1185 22.7136C48.11 22.2863 48.2624 22.2186 48.6096 22.2271C49.6553 22.244 50.701 22.2228 51.7425 22.2398C52.0812 22.2482 52.1955 22.1255 52.1786 21.7828C52.1532 21.2835 52.1574 20.7843 52.1532 20.2892C52.1744 20.2808 52.1871 20.2638 52.1955 20.2384C52.3522 20.2427 52.513 20.2596 52.6697 20.2511C53.0931 20.23 53.6265 20.4331 53.9102 20.1665C54.2108 19.8873 53.9779 19.3161 54.0202 18.876V18.8253C53.9948 18.5164 54.1303 18.4191 54.4182 18.436C54.8289 18.4529 55.2395 18.4191 55.6502 18.4445C55.9889 18.4656 56.082 18.3302 56.0778 17.9875C56.0651 16.9551 56.082 15.9269 56.0863 14.8946C56.607 14.8819 57.132 14.8607 57.6527 14.8607C57.8813 14.8607 58.0041 14.8099 57.9999 14.5349C57.9957 12.889 57.9957 11.2431 57.9999 9.59721C57.9999 9.33488 57.9025 9.25026 57.6612 9.25872ZM47.5935 7.72283C47.0304 7.72283 46.5732 7.25318 46.5732 6.66928C46.5732 6.08962 47.0304 5.61574 47.5935 5.61574C48.1524 5.61574 48.6096 6.08962 48.6096 6.66928C48.6096 7.25318 48.1524 7.72283 47.5935 7.72283Z" fill="#58B665"/>
<path d="M48.6096 6.66927C48.6096 7.25316 48.1524 7.72281 47.5936 7.72281C47.0305 7.72281 46.5732 7.25316 46.5732 6.66927C46.5732 6.08961 47.0305 5.61572 47.5936 5.61572C48.1524 5.61572 48.6096 6.08961 48.6096 6.66927Z" fill="#3D3D3D"/>
<path d="M37.1865 9.90184C37.1908 9.86799 37.2119 9.82568 37.2585 9.7749C37.2162 9.79183 37.195 9.84683 37.1865 9.90184Z" fill="#DF4923"/>
<path d="M37.2634 9.76652C37.2592 9.77075 37.2592 9.77075 37.2592 9.77498C37.2126 9.82575 37.1915 9.86806 37.1872 9.90191C37.1534 10.0458 37.056 10.0838 36.9163 10.0881C36.6453 10.0923 36.6411 10.1008 36.6284 10.3716C36.6242 10.4604 36.6326 10.5535 36.5056 10.562C36.3786 10.5747 36.3405 10.4943 36.3278 10.3927C36.3066 10.2404 36.2135 10.1981 36.0695 10.2023C35.9425 10.2066 35.8155 10.1981 35.6843 10.2023C35.5361 10.2066 35.4599 10.1473 35.4557 9.995C35.4514 9.85537 35.4006 9.77921 35.2313 9.79613C35.2143 9.78767 35.1932 9.77921 35.1762 9.76652C35.0958 9.71997 34.9518 9.8046 34.9222 9.69882C34.8841 9.57612 34.9053 9.43649 34.9053 9.30533C34.9053 9.2207 34.9645 9.20801 35.0281 9.20801C35.4218 9.20801 35.8155 9.20801 36.2093 9.20378C36.3066 9.20378 36.3405 9.25878 36.3405 9.34341C36.3405 9.42803 36.3447 9.51688 36.3405 9.6015C36.3363 9.72421 36.3998 9.76229 36.5183 9.76229C36.6453 9.76652 36.658 9.69459 36.658 9.59727C36.6538 9.55073 36.6623 9.50419 36.6538 9.45765C36.6157 9.25032 36.7046 9.19109 36.912 9.20378C37.1618 9.2207 37.1618 9.20801 37.1618 9.4788C37.1618 9.63958 37.2973 9.72421 37.2634 9.76652Z" fill="#58B665"/>
<path d="M39.1007 10.909C39.1007 10.6213 39.1007 10.6128 38.7959 10.617C38.618 10.6213 38.5503 10.5578 38.563 10.3843C38.5672 10.2955 38.5969 10.1389 38.5334 10.122C38.3429 10.067 38.3301 9.89775 38.2412 9.77928C37.9322 9.70735 37.6189 9.75812 37.3056 9.75812C37.2887 9.75812 37.276 9.76235 37.2633 9.76658C37.259 9.77081 37.259 9.77081 37.259 9.77504C37.2125 9.82582 37.1913 9.86813 37.1871 9.90198C37.1532 10.0458 37.0558 10.0839 36.9161 10.0881C36.6451 10.0924 36.6409 10.1008 36.6282 10.3716C36.624 10.4605 36.6324 10.5536 36.5054 10.562C36.3784 10.5747 36.3403 10.4943 36.3276 10.3928C36.3065 10.2405 36.2133 10.1982 36.0694 10.2024C35.9424 10.2066 35.8153 10.1982 35.6841 10.2024C35.5359 10.2066 35.4597 10.1474 35.4555 9.99506C35.4555 9.85544 35.3962 9.76658 35.2311 9.7962C35.2184 9.85544 35.2099 9.91467 35.1972 9.96968C35.1972 9.97391 35.1972 9.97391 35.1972 9.97814C35.1845 10.0162 35.1676 10.0543 35.1295 10.0628C34.9432 10.0839 34.9559 10.2151 34.9559 10.3462C34.9517 10.6043 34.9517 10.6043 34.685 10.6086C34.6511 10.6086 34.6172 10.617 34.5833 10.6086C34.3801 10.5832 34.3251 10.672 34.3293 10.8624C34.342 11.3871 34.3336 11.916 34.3336 12.4406C34.3336 12.8511 34.3336 12.8553 34.7485 12.8595C34.9178 12.8638 34.9601 12.9357 34.9559 13.0795C34.9517 13.2784 34.9559 13.4815 34.9517 13.6804C34.9474 13.7988 34.9855 13.8792 35.121 13.8665C35.3158 13.8454 35.3793 13.9427 35.3623 14.1162C35.3454 14.2685 35.4216 14.315 35.5656 14.3066C35.7434 14.2981 35.9212 14.2981 36.0948 14.3108C36.2895 14.3235 36.3954 14.2685 36.3657 14.0569C36.3488 13.9173 36.4208 13.8708 36.5605 13.875C36.7425 13.8835 36.9288 13.8835 37.1109 13.875C37.259 13.8708 37.3522 13.9131 37.3395 14.0738C37.331 14.1966 37.386 14.2389 37.5088 14.2346C37.7163 14.2262 37.9279 14.2304 38.1396 14.2346C38.2582 14.2346 38.3174 14.1881 38.309 14.0696C38.309 13.9977 38.2963 13.8961 38.3894 13.8877C38.5545 13.8665 38.5418 13.7523 38.5461 13.6507C38.5545 13.4984 38.5461 13.3461 38.5503 13.1895C38.5503 12.8638 38.5503 12.8553 38.8763 12.8638C39.0583 12.868 39.1049 12.8003 39.1007 12.631C39.0922 12.0556 39.1007 11.4844 39.1007 10.909ZM35.7899 11.1671C35.7857 11.1798 35.7815 11.2009 35.7772 11.2009C35.4936 11.2052 35.5656 11.4125 35.5486 11.5775C35.5359 11.7256 35.6164 11.8906 35.4936 12.026C35.4767 12.0302 35.4639 12.0345 35.4512 12.0387C34.9728 12.136 34.9093 12.0852 34.9093 11.6198C34.9093 11.6156 34.9051 11.6071 34.9093 11.5987C34.9178 11.4506 34.8458 11.2686 34.939 11.1544C35.0321 11.0444 35.2184 11.1248 35.3666 11.1121C35.5783 11.0909 35.5063 10.9259 35.4936 10.8244C35.4809 10.6636 35.5444 10.6255 35.6883 10.634C35.7899 10.6382 35.845 10.672 35.8323 10.7778C35.8196 10.9048 35.8661 11.0444 35.7899 11.1671Z" fill="#DF4923"/>
<path d="M35.7898 11.167C35.7856 11.1797 35.7814 11.2009 35.7771 11.2009C35.4935 11.2051 35.5654 11.4124 35.5485 11.5775C35.5358 11.7255 35.6162 11.8906 35.4935 12.0259C35.4765 12.0302 35.4638 12.0344 35.4511 12.0386C34.9727 12.136 34.9092 12.0852 34.9092 11.6198C34.9092 11.6155 34.905 11.6071 34.9092 11.5986C34.9177 11.4505 34.8457 11.2686 34.9389 11.1543C35.032 11.0443 35.2183 11.1247 35.3665 11.112C35.5781 11.0909 35.5062 10.9259 35.4935 10.8243C35.4808 10.6635 35.5443 10.6255 35.6882 10.6339C35.7898 10.6381 35.8449 10.672 35.8322 10.7778C35.8195 10.9047 35.866 11.0443 35.7898 11.167Z" fill="#FEF4F2"/>
</svg>
