<svg>
    //logo svg檔
    <symbol id="logo" fill="none" xmlns="http://www.w3.org/2000/svg">
        <path d="M29.7534 32.7705C29.7534 32.7778 29.7461 32.7923 29.7461 32.7996C29.7461 32.785 29.7461 32.7778 29.7534 32.7705Z" fill="#E9E73C"/>
        <path d="M32.5596 30.1582L32.5527 30.172C32.5527 30.1651 32.5596 30.1651 32.5596 30.1582Z" fill="#E9E73C"/>
        <path d="M32.5469 8.94043C32.6506 9.00919 32.6506 9.00919 32.5469 8.94043V8.94043Z" fill="#E9E73C"/>
        <path d="M22.0897 9.12598C21.1747 9.12598 20.4316 9.89604 20.4316 10.838C20.4316 11.7868 21.1747 12.55 22.0897 12.55C22.9978 12.55 23.7408 11.7868 23.7408 10.838C23.7408 9.89604 22.9978 9.12598 22.0897 9.12598Z" fill="#2E8B3B"/>
        <path d="M29.7945 32.7158C29.7807 32.7296 29.7599 32.7502 29.7461 32.7639C29.7668 32.7502 29.7807 32.7296 29.7945 32.7158Z" fill="#E9E73C"/>
        <path d="M38.4494 15.0454C37.8372 15.0661 37.2111 15.0042 36.5988 15.0661C36.0003 15.1211 35.8008 14.9285 35.8145 14.2822C35.842 12.6665 35.7939 11.0439 35.7801 9.4281C35.7664 9.35247 35.7595 9.28371 35.7457 9.20808C35.5875 8.89181 35.2985 9.02244 35.0646 9.01556C34.4523 8.99494 33.84 8.98119 33.2346 9.02244C32.7118 9.05682 32.4847 8.89181 32.526 8.31426C32.5673 7.75046 32.5466 7.18667 32.5329 6.62975C32.526 6.29285 32.4985 5.94219 32.0238 6.07971C31.1913 6.07283 30.3589 6.07283 29.5333 6.06595C29.5402 6.01783 29.5264 5.99032 29.4852 5.97657C29.4989 5.13775 29.4783 4.29894 29.5264 3.467C29.5608 2.83445 29.3132 2.69693 28.7559 2.71069C27.0635 2.74506 25.3642 2.68318 23.6718 2.74506C22.9769 2.76569 22.8118 2.5388 22.8256 1.83749C22.8325 1.29432 23.1145 0.668647 22.6054 0.180483C22.3853 -0.10829 22.0757 0.0360966 21.8143 0.0360966C19.6334 0.0223455 17.4525 0.0292211 15.2717 0.0292211C13.1321 0.0292211 13.1114 0.0292211 13.1252 2.2569C13.1321 2.88945 12.9325 3.01321 12.3822 3.01321C10.6691 3.01321 8.94919 2.91695 7.22926 3.06821C7.09166 3.01321 6.95407 2.99946 6.84399 3.13009C6.55504 3.21948 6.672 3.48075 6.66512 3.66639C6.64448 4.20268 6.61008 4.74585 6.672 5.27527C6.7408 5.95595 6.46561 6.11408 5.88771 6.07283C5.29606 6.0247 4.7044 6.07971 4.11962 6.0522C3.6174 6.03158 3.41789 6.25847 3.43165 6.76726C3.44541 7.27605 3.39725 7.79172 3.43853 8.30051C3.49357 8.89181 3.25966 9.07057 2.74368 9.00869C2.59232 8.98806 2.43409 8.99494 2.28274 9.00869C1.57412 9.07057 0.645361 8.67866 0.211938 9.18745C-0.207725 9.68249 0.136261 10.6313 0.0743438 11.3739C0.0261858 11.9789 0.253217 12.1783 0.824234 12.1646C2.59232 12.1302 4.36041 12.1646 6.1285 12.1371C6.58944 12.1302 6.7752 12.2471 6.75456 12.7627C6.72704 13.3747 6.78208 13.9935 6.80271 14.6123C6.81647 14.681 6.83023 14.7498 6.83711 14.8185C7.05038 15.1279 7.35997 14.9698 7.61452 14.9698C10.2839 14.9835 12.9532 14.9973 15.6225 14.9698C16.1247 14.9629 16.3174 15.0867 16.2761 15.6367C16.2348 16.2555 16.2899 16.8812 16.2555 17.4931C16.2279 18.0019 16.4275 18.1532 16.8884 18.1463C18.1955 18.1188 19.5027 18.1394 20.8098 18.1325C22.8462 18.1325 22.8325 18.1325 22.7843 20.2708C22.7774 20.7728 22.633 20.924 22.172 20.9103C20.8855 20.8828 19.6059 20.9034 18.3194 20.9034C16.0697 20.8965 16.0697 20.8965 16.3174 23.3373C16.3036 23.4748 16.2967 23.6124 16.283 23.7499C15.8977 23.9561 15.478 23.8874 15.0721 23.8874C12.5266 23.8736 9.98115 23.8599 7.44253 23.7842C6.7408 23.7636 6.50689 23.9905 6.5688 24.6987C6.61008 25.1525 6.54816 25.62 6.58256 26.0738C6.63072 26.5895 6.42433 26.7064 5.96339 26.6995C4.42233 26.6789 2.88127 26.6926 1.33333 26.6926C-0.200845 26.6995 0.101863 26.6101 0.0881033 28.0471C0.0743438 29.9035 0.0881033 29.9035 1.84931 29.9035C3.49357 29.8966 3.49357 29.8966 3.49357 31.6568C3.48669 33.4581 3.41101 33.1281 4.86263 33.1419C6.57568 33.1625 6.61696 33.1556 6.55504 34.957C6.52753 35.7683 6.78208 35.9815 7.51821 35.9608C9.21062 35.9127 10.9099 35.9608 12.6023 35.9333C13.1527 35.9196 13.3316 36.1121 13.2903 36.669C13.249 37.1572 13.3178 37.6454 13.2697 38.1266C13.2077 38.7867 13.4073 39.0067 14.0677 38.9998C16.3587 38.9517 18.6427 38.9792 20.9337 38.9792C22.9425 38.9792 22.9769 38.9792 22.9425 36.9097C22.9288 36.2152 23.1765 36.1052 23.7406 36.119C25.4399 36.1465 27.1392 36.1121 28.8316 36.1396C29.382 36.1534 29.5677 35.954 29.5402 35.3971C29.4989 34.5857 29.5058 33.7744 29.4989 32.97C29.5333 32.9562 29.554 32.9287 29.5677 32.8875C29.8223 32.8944 30.0837 32.9219 30.3383 32.9081C31.0262 32.8737 31.8931 33.2038 32.354 32.7706C32.8425 32.3168 32.4641 31.3886 32.5329 30.6735V30.591C32.4916 30.0891 32.7118 29.931 33.1796 29.9585C33.8469 29.986 34.5142 29.931 35.1816 29.9722C35.732 30.0066 35.8833 29.7866 35.8764 29.2297C35.8558 27.552 35.8833 25.8813 35.8902 24.2037C36.7364 24.183 37.5895 24.1487 38.4357 24.1487C38.8072 24.1487 39.0067 24.0661 38.9998 23.6192C38.9929 20.9446 38.9929 18.2701 38.9998 15.5955C38.9998 15.1692 38.8416 15.0317 38.4494 15.0454ZM22.0895 12.5496C21.1745 12.5496 20.4314 11.7864 20.4314 10.8376C20.4314 9.89564 21.1745 9.12558 22.0895 9.12558C22.9976 9.12558 23.7406 9.89564 23.7406 10.8376C23.7406 11.7864 22.9976 12.5496 22.0895 12.5496Z" fill="#58B665"/>
        <path d="M23.7408 10.838C23.7408 11.7868 22.9978 12.55 22.0897 12.55C21.1747 12.55 20.4316 11.7868 20.4316 10.838C20.4316 9.89604 21.1747 9.12598 22.0897 9.12598C22.9978 9.12598 23.7408 9.89604 23.7408 10.838Z" fill="#3D3D3D"/>
        <path d="M5.17969 16.0901C5.18657 16.0351 5.22097 15.9663 5.29664 15.8838C5.22785 15.9113 5.19345 16.0007 5.17969 16.0901Z" fill="#DF4923"/>
        <path d="M5.30247 15.8702C5.29559 15.8771 5.29559 15.8771 5.29559 15.884C5.21992 15.9665 5.18552 16.0352 5.17864 16.0902C5.1236 16.324 4.96537 16.3859 4.73834 16.3928C4.29803 16.3996 4.29115 16.4134 4.27051 16.8534C4.26363 16.9978 4.27739 17.1491 4.071 17.1628C3.86461 17.1835 3.80269 17.0528 3.78205 16.8878C3.74765 16.6403 3.5963 16.5715 3.36239 16.5784C3.156 16.5853 2.94961 16.5715 2.73634 16.5784C2.49555 16.5853 2.37171 16.489 2.36483 16.2415C2.35795 16.0146 2.27539 15.8909 2.0002 15.9184C1.97269 15.9046 1.93829 15.8909 1.91077 15.8702C1.78005 15.7946 1.54614 15.9321 1.49799 15.7602C1.43607 15.5608 1.47047 15.3339 1.47047 15.1208C1.47047 14.9833 1.56678 14.9627 1.66998 14.9627C2.30979 14.9627 2.94961 14.9627 3.58942 14.9558C3.74765 14.9558 3.80269 15.0452 3.80269 15.1827C3.80269 15.3202 3.80957 15.4646 3.80269 15.6021C3.79581 15.8015 3.89901 15.8633 4.09164 15.8633C4.29803 15.8702 4.31867 15.7533 4.31867 15.5952C4.31179 15.5196 4.32555 15.4439 4.31179 15.3683C4.24987 15.0314 4.39435 14.9351 4.73146 14.9558C5.13736 14.9833 5.13736 14.9627 5.13736 15.4027C5.13736 15.664 5.35751 15.8015 5.30247 15.8702Z" fill="#58B665"/>
        <path d="M8.28897 17.7265C8.28897 17.259 8.28897 17.2453 7.79363 17.2521C7.50468 17.259 7.3946 17.1559 7.41524 16.874C7.42212 16.7296 7.47028 16.4752 7.36709 16.4477C7.0575 16.3583 7.03686 16.0833 6.89238 15.8908C6.39016 15.7739 5.88106 15.8564 5.37196 15.8564C5.34445 15.8564 5.32381 15.8633 5.30317 15.8701C5.29629 15.877 5.29629 15.877 5.29629 15.8839C5.22061 15.9664 5.18621 16.0352 5.17933 16.0902C5.1243 16.3239 4.96606 16.3858 4.73903 16.3927C4.29873 16.3996 4.29185 16.4133 4.27121 16.8534C4.26433 16.9977 4.27809 17.149 4.0717 17.1628C3.86531 17.1834 3.80339 17.0527 3.78275 16.8877C3.74835 16.6402 3.597 16.5715 3.36309 16.5783C3.15669 16.5852 2.9503 16.5715 2.73703 16.5783C2.49624 16.5852 2.37241 16.4889 2.36553 16.2414C2.36553 16.0145 2.26921 15.8701 2.0009 15.9183C1.98026 16.0145 1.9665 16.1108 1.94586 16.2002C1.94586 16.207 1.94586 16.207 1.94586 16.2139C1.92522 16.2758 1.8977 16.3377 1.83579 16.3514C1.53308 16.3858 1.55372 16.599 1.55372 16.8121C1.54684 17.2315 1.54684 17.2315 1.11342 17.2384C1.05838 17.2384 1.00334 17.2521 0.948302 17.2384C0.618075 17.1971 0.528639 17.3415 0.535518 17.6509C0.556158 18.5035 0.542398 19.3629 0.542398 20.2155C0.542398 20.8824 0.542398 20.8893 1.21661 20.8962C1.4918 20.903 1.5606 21.0199 1.55372 21.2537C1.54684 21.5769 1.55372 21.9069 1.54684 22.23C1.53996 22.4225 1.60188 22.5532 1.82203 22.5326C2.13849 22.4982 2.24169 22.6563 2.21417 22.9382C2.18665 23.1857 2.31049 23.2614 2.5444 23.2476C2.83335 23.2339 3.12229 23.2339 3.40436 23.2545C3.72083 23.2751 3.89282 23.1857 3.84467 22.842C3.81715 22.6151 3.9341 22.5394 4.16113 22.5463C4.45696 22.5601 4.75967 22.5601 5.0555 22.5463C5.29629 22.5394 5.44764 22.6082 5.427 22.8695C5.41324 23.0688 5.50268 23.1376 5.70219 23.1307C6.0393 23.117 6.38328 23.1239 6.72727 23.1307C6.9199 23.1307 7.01622 23.0551 7.00246 22.8626C7.00246 22.7457 6.98182 22.5807 7.13317 22.5669C7.40148 22.5326 7.38084 22.3469 7.38772 22.1819C7.40148 21.9344 7.38772 21.6869 7.3946 21.4325C7.3946 20.9031 7.3946 20.8893 7.92434 20.903C8.22017 20.9099 8.29585 20.7999 8.28897 20.5249C8.27521 19.5898 8.28897 18.6616 8.28897 17.7265ZM2.90902 18.146C2.90214 18.1666 2.89526 18.201 2.88838 18.201C2.42744 18.2078 2.5444 18.5447 2.51688 18.8129C2.49624 19.0535 2.62695 19.3217 2.42744 19.5417C2.39992 19.5486 2.37928 19.5554 2.35865 19.5623C1.58124 19.7205 1.47804 19.6379 1.47804 18.8816C1.47804 18.8748 1.47116 18.861 1.47804 18.8473C1.4918 18.6066 1.37484 18.311 1.5262 18.1253C1.67755 17.9466 1.98026 18.0772 2.22105 18.0566C2.56504 18.0222 2.44808 17.754 2.42744 17.589C2.4068 17.3278 2.51 17.2659 2.74391 17.2796C2.90902 17.2865 2.99846 17.3415 2.97782 17.5134C2.95718 17.7197 3.03286 17.9466 2.90902 18.146Z" fill="#DF4923"/>
        <path d="M2.90847 18.1459C2.90159 18.1666 2.89471 18.2009 2.88783 18.2009C2.42689 18.2078 2.54384 18.5447 2.51632 18.8129C2.49568 19.0535 2.6264 19.3217 2.42689 19.5417C2.39937 19.5486 2.37873 19.5554 2.35809 19.5623C1.58068 19.7204 1.47748 19.6379 1.47748 18.8816C1.47748 18.8748 1.4706 18.861 1.47748 18.8472C1.49124 18.6066 1.37429 18.311 1.52564 18.1253C1.677 17.9466 1.9797 18.0772 2.22049 18.0566C2.56448 18.0222 2.44752 17.754 2.42689 17.589C2.40625 17.3278 2.50944 17.2659 2.74335 17.2796C2.90847 17.2865 2.9979 17.3415 2.97726 17.5134C2.95662 17.7197 3.0323 17.9466 2.90847 18.1459Z" fill="#FEF4F2"/>
        <path d="M102.33 10.813C104.551 10.813 105.763 13.4194 104.333 15.1365L91.1597 30.9117C89.8247 32.5056 87.863 33.4291 85.7856 33.4291H73.5116C72.1766 33.4291 71.4546 31.8625 72.306 30.8364L74.6422 28.0385H51.1569L47.9555 32.3209C47.4379 33.0187 46.6205 33.4223 45.7555 33.4223C43.4192 33.4223 42.1455 30.6791 43.6508 28.8867L58.1044 11.5792C58.5131 11.0935 59.1125 10.813 59.7391 10.813C61.5032 10.813 62.5045 12.8379 61.4487 14.254L55.1755 22.6546H79.1445L86.923 13.3373C88.2581 11.7434 90.2197 10.8198 92.2972 10.8198H102.33V10.813Z" fill="#58B665"/>
        <path d="M156.991 15.1365L148.32 25.5278C146.985 27.1218 145.023 28.0453 142.946 28.0453H129.31C128.043 28.0453 126.837 28.6063 126.02 29.5845L123.588 32.4919C123.091 33.0871 122.355 33.4291 121.585 33.4291H98.1341C95.9137 33.4291 94.7012 30.8227 96.1316 29.1056L109.305 13.3236C110.64 11.7297 112.601 10.8062 114.679 10.8062H154.995C157.209 10.813 158.421 13.4194 156.991 15.1365ZM133.819 16.2036H116.17C114.904 16.2036 113.698 16.7714 112.881 17.7429L111.832 19.0016C110.973 20.0277 111.702 21.5943 113.037 21.5943H130.685C131.952 21.5943 133.158 21.0265 133.975 20.0551L135.024 18.7964C135.882 17.7702 135.154 16.2036 133.819 16.2036Z" fill="#58B665"/>
        <path d="M206.44 10.813C208.715 10.813 209.962 13.4878 208.497 15.2391C207.987 15.8479 207.237 16.2036 206.44 16.2036H179.406C178.139 16.2036 176.934 16.7714 176.116 17.7429L175.068 19.0016C174.209 20.0277 174.938 21.5943 176.273 21.5943H199.827C201.162 21.5943 201.884 23.1609 201.032 24.187L195.413 30.9117C194.078 32.5056 192.116 33.4291 190.039 33.4291H165.266C164.374 33.4291 163.89 32.3825 164.462 31.6984L166.363 29.4203C166.819 28.8731 166.431 28.0385 165.722 28.0385H154.218C151.998 28.0385 150.785 25.4321 152.216 23.715L160.886 13.3236C162.221 11.7297 164.183 10.8062 166.261 10.8062H206.44V10.813Z" fill="#58B665"/>
        <path d="M249.113 10.813C251.333 10.813 252.546 13.4194 251.116 15.1365L237.942 30.9117C236.607 32.5056 234.646 33.4291 232.568 33.4291H220.294C218.959 33.4291 218.237 31.8626 219.089 30.8364L229.142 18.7964C230 17.7702 229.272 16.2037 227.937 16.2037H218.258C216.909 16.2037 215.635 16.8399 214.825 17.9276L204.077 32.3277C203.559 33.0255 202.742 33.4291 201.877 33.4291C199.54 33.4291 198.267 30.6859 199.772 28.8936L216.228 9.18487C218.217 6.80423 221.153 5.4292 224.245 5.4292H238.058C238.951 5.4292 239.434 6.47586 238.862 7.15996L236.962 9.43799C236.505 9.98526 236.894 10.8199 237.602 10.8199H249.113V10.813Z" fill="#58B665"/>
        <path d="M259.909 16.8197L246.879 32.4307C246.348 33.0669 245.571 33.4295 244.747 33.4295C242.383 33.4295 241.096 30.6521 242.615 28.8324L252.989 16.4024C253.411 15.8962 254.031 15.6089 254.685 15.6089H259.35C259.97 15.6157 260.311 16.3409 259.909 16.8197ZM264.343 11.518C263.921 12.0242 263.301 12.3116 262.647 12.3116H257.981C257.362 12.3116 257.021 11.5796 257.423 11.1007L260.079 7.91967C260.611 7.28347 261.387 6.9209 262.211 6.9209C264.575 6.9209 265.862 9.69832 264.343 11.518Z" fill="#58B665"/>
    </symbol>

    //雙菱形
    <symbol id="decorate" viewBox="0 0 141 181" fill="none" xmlns="http://www.w3.org/2000/svg">
        <path d="M87 147.5C101.912 147.5 114 132.502 114 114C114 132.502 126.088 147.5 141 147.5C126.088 147.5 114 162.498 114 181C114 162.498 101.912 147.5 87 147.5Z" fill="#58C067"/>
        <path d="M54.5 119.975C49.5668 94.0743 32.9372 73.5684 11.6589 68C32.9372 62.4316 49.5668 41.9257 54.5 16.025C59.4332 41.9257 76.0628 62.4316 97.3411 68C76.0628 73.5684 59.4332 94.0743 54.5 119.975Z" stroke="#58C067" stroke-width="3"/>
    </symbol>

    //雙菱形-反
    <symbol  id="decorate-re" viewBox="0 0 45 63" fill="none" xmlns="http://www.w3.org/2000/svg">
        <path d="M12 25.6528C10.7828 20.4844 7.44904 16.38 3.17301 15C7.44904 13.62 10.7828 9.51557 12 4.34722C13.2172 9.51557 16.551 13.62 20.827 15C16.551 16.38 13.2172 20.4844 12 25.6528Z" stroke="#58C067"/>
        <path d="M8 40C18.2173 40 26.5 29.7025 26.5 17C26.5 29.7025 34.7827 40 45 40C34.7827 40 26.5 50.2975 26.5 63C26.5 50.2975 18.2173 40 8 40Z" fill="#58C067"/>
        <path d="M26.5 55.4061C24.5153 48.0849 19.7365 42.2487 13.6116 40C19.7365 37.7513 24.5153 31.9151 26.5 24.5939C28.4847 31.9151 33.2635 37.7513 39.3884 40C33.2635 42.2487 28.4847 48.0849 26.5 55.4061Z" stroke="#3D3D3D" stroke-width="2"/>
    </symbol>

    //單菱形
    <symbol id="single-star" viewBox="0 0 37 46" fill="none" xmlns="http://www.w3.org/2000/svg">
        <path d="M0 23C10.2173 23 18.5 12.7025 18.5 0C18.5 12.7025 26.7827 23 37 23C26.7827 23 18.5 33.2975 18.5 46C18.5 33.2975 10.2173 23 0 23Z" fill="#58C067"/>
        <path d="M18.5 38.4061C16.5153 31.0849 11.7365 25.2487 5.61157 23C11.7365 20.7513 16.5153 14.9151 18.5 7.59395C20.4847 14.9151 25.2635 20.7513 31.3884 23C25.2635 25.2487 20.4847 31.0849 18.5 38.4061Z" stroke="#3D3D3D" stroke-width="2"/>
    </symbol>

    //多角星星
    <symbol id="polygon" viewBox="0 0 162 177" fill="none" xmlns="http://www.w3.org/2000/svg">
        <path d="M129.396 4.1186L132.194 15.3002C132.575 16.8224 134.481 17.333 135.572 16.2052L143.586 7.92099L140.419 19.0038C139.988 20.5126 141.383 21.9075 142.892 21.4764L153.975 18.3093L145.69 26.3238C144.563 27.4148 145.073 29.3204 146.595 29.7014L157.777 32.5L146.595 35.2986C145.073 35.6796 144.563 37.5852 145.69 38.6762L153.975 46.6907L142.892 43.5236C141.383 43.0925 139.988 44.4874 140.419 45.9962L143.586 57.079L135.572 48.7948C134.481 47.667 132.575 48.1776 132.194 49.6998L129.396 60.8814L126.597 49.6998C126.216 48.1776 124.31 47.667 123.219 48.7948L115.205 57.079L118.372 45.9962C118.803 44.4874 117.408 43.0925 115.899 43.5236L104.816 46.6907L113.101 38.6762C114.228 37.5852 113.718 35.6796 112.196 35.2986L101.014 32.5L112.196 29.7014C113.718 29.3204 114.228 27.4148 113.101 26.3238L104.816 18.3093L115.899 21.4764C117.408 21.9075 118.803 20.5126 118.372 19.0038L115.205 7.92099L123.219 16.2052C124.31 17.333 126.216 16.8224 126.597 15.3002L129.396 4.1186Z" stroke="#58C067" stroke-width="2"/>
        <path d="M65 51.1416L72.0045 79.1268C72.3854 80.649 74.291 81.1596 75.382 80.0318L95.4407 59.2981L87.5141 87.0363C87.0829 88.5451 88.4779 89.94 89.9866 89.5089L117.725 81.5822L96.9911 101.641C95.8633 102.732 96.3739 104.638 97.8961 105.018L125.881 112.023L97.8961 119.027C96.3739 119.408 95.8633 121.314 96.9911 122.405L117.725 142.464L89.9866 134.537C88.4779 134.106 87.0829 135.501 87.5141 137.01L95.4407 164.748L75.382 144.014C74.291 142.886 72.3855 143.397 72.0045 144.919L65 172.904L57.9955 144.919C57.6146 143.397 55.709 142.886 54.618 144.014L34.5593 164.748L42.4859 137.01C42.9171 135.501 41.5221 134.106 40.0134 134.537L12.2752 142.464L33.0089 122.405C34.1367 121.314 33.6261 119.408 32.1039 119.027L4.1186 112.023L32.1039 105.018C33.6261 104.638 34.1367 102.732 33.0089 101.641L12.2752 81.5822L40.0134 89.5089C41.5221 89.94 42.9171 88.5451 42.4859 87.0363L34.5593 59.2981L54.618 80.0318C55.709 81.1596 57.6146 80.649 57.9955 79.1268L65 51.1416Z" fill="#58C067" stroke="black" stroke-width="2"/>
    </symbol>

    //header下方的裝飾
    <symbol id="adorn" width="40" height="40" viewBox="0 0 40 40" fill="none" xmlns="http://www.w3.org/2000/svg">
        <rect width="20" height="20" fill="white"/>
        <rect y="20" width="20" height="20" fill="#58C067"/>
        <rect x="20" width="20" height="20" fill="#58C067"/>
        <rect x="20" y="20" width="20" height="20" fill="white"/>
    </symbol>

    //營養師icon
    <symbol id="nutritionist-icon" viewBox="0 0 100 100" fill="none" xmlns="http://www.w3.org/2000/svg">
        <path d="M36.6769 29.5238C38.0155 29.5238 39.0578 30.5683 39.0476 31.9098C39.0476 33.2513 38.0053 34.2959 36.6565 34.2856C35.3179 34.2856 34.2756 33.2309 34.2858 31.8894C34.2858 30.5581 35.3281 29.5238 36.6769 29.5238Z" fill="#58B765"/>
        <path d="M48.1055 29.5238C49.4441 29.5238 50.4864 30.5661 50.4762 31.9149C50.4762 33.2536 49.4339 34.2959 48.0851 34.2856C46.7465 34.2856 45.7042 33.2331 45.7144 31.8945C45.7144 30.5559 46.7567 29.5238 48.1055 29.5238Z" fill="#58B765"/>
        <path d="M0.988825 100C0.195369 99.4979 -0.00550535 98.775 0.00453839 97.8512C0.0447133 93.0716 0.094932 88.282 0.00453839 83.5024C-0.12603 77.2568 2.56569 72.4772 7.4369 68.8222C11.1832 66.0106 15.4418 64.3137 20.0016 63.2895C22.6933 62.687 25.3549 61.9641 28.1471 61.2612C28.1471 60.3173 28.1471 59.3534 28.1471 58.3894C28.1471 56.3109 28.1672 54.2223 28.127 52.1438C28.117 51.7622 27.9663 51.3104 27.7253 51.0192C25.2545 47.9767 23.8986 44.4924 23.4667 40.6165C23.4165 40.2048 23.1252 39.7329 22.7938 39.4718C19.4894 36.821 16.9182 33.6881 15.944 29.4507C15.7833 28.7579 15.6527 28.0349 15.6627 27.3321C15.6929 24.0787 15.5322 20.8053 15.8736 17.5921C16.7474 9.25796 23.527 2.02832 31.7528 0.451853C33.1489 0.180741 34.5851 0.060247 36.0113 0.0401647C40.3 -0.0200823 44.5987 0 48.8975 0.0200823C58.7001 0.060247 67.5487 7.83211 68.5129 17.6022C68.8945 21.4881 68.8945 25.4945 68.3923 29.3604C67.8399 33.6781 64.9373 36.8109 61.6028 39.4819C61.2713 39.7429 60.9801 40.2249 60.9299 40.6366C60.498 44.5125 59.132 47.9968 56.6613 51.0292C56.4905 51.2401 56.2796 51.5212 56.2796 51.7723C56.2495 54.9252 56.2595 58.0781 56.2595 61.2612C59.4936 62.0745 62.6674 62.8678 65.9316 63.6811C67.5386 59.4136 71.074 59.0521 75.0212 59.4638C75.0212 58.8312 75.0112 58.3492 75.0212 57.8673C75.0513 56.8631 75.6038 56.2607 76.588 56.2607C80.7562 56.2406 84.9143 56.2406 89.0825 56.2607C90.0165 56.2607 90.579 56.8531 90.6292 57.7869C90.6493 58.2689 90.6292 58.7609 90.6292 59.3734C91.8646 59.3734 93.0698 59.4437 94.2449 59.3634C97.1275 59.1525 99.0659 60.3273 100 63.0887C100 73.7022 100 84.3157 100 94.9192C99.769 95.4815 99.5782 96.0639 99.307 96.6061C98.403 98.4436 96.796 99.3975 94.9179 99.99C63.6216 100 32.3052 100 0.988825 100ZM26.5803 32.8346C26.6405 32.8346 26.6907 32.8346 26.751 32.8346C26.751 35.5658 26.5401 38.3171 26.7912 41.0182C27.5846 49.6937 36.4432 56.1603 44.9904 54.4332C52.6739 52.8768 57.8163 46.6211 57.8364 38.769C57.8464 35.3248 57.7159 31.8606 57.8866 28.4265C57.977 26.579 57.4246 25.6351 55.7172 24.8519C53.9595 24.0486 52.463 23.7574 50.5145 24.2494C44.7896 25.6853 39.7476 24.3197 35.8506 19.7108C35.1777 18.9176 34.6052 18.8172 33.7013 19.0581C30.6379 19.8815 28.5689 21.8797 27.0523 24.5406C26.7811 25.0226 26.6305 25.6351 26.6104 26.1874C26.5501 28.4065 26.5803 30.6155 26.5803 32.8346ZM65.6705 20.7049C65.6002 20.0321 65.55 19.4497 65.4897 18.8774C64.5657 9.9508 57.053 3.15293 48.0839 3.13284C44.1468 3.1228 40.2096 3.11276 36.2725 3.14289C35.238 3.15293 34.1834 3.19309 33.169 3.40396C26.6506 4.73943 22.2615 8.60528 19.861 14.7605C19.1178 16.6483 18.8165 18.6264 18.7763 20.7451C21.0763 19.992 23.1453 20.2229 25.0235 21.7291C25.3148 21.3576 25.5458 21.0463 25.7868 20.7451C28.3078 17.6423 31.4716 15.7646 35.5594 15.6241C36.4834 15.5939 37.0659 15.9454 37.538 16.7286C38.8839 18.9276 40.8223 20.3936 43.293 21.1166C46.2158 21.9801 49.0883 21.6086 51.9005 20.6145C52.8748 20.2731 53.6883 20.3133 54.5822 20.8053C55.8477 21.5082 57.1735 22.1107 58.4491 22.7432C60.739 20.3434 61.9342 20.0121 65.6705 20.7049ZM12.509 96.827C19.0173 96.827 25.4052 96.827 31.8834 96.827C31.7026 96.3952 31.562 96.0337 31.4013 95.6923C29.3724 91.2341 27.3235 86.7858 25.3348 82.3075C25.0938 81.7652 25.0637 81.0523 25.1741 80.4699C25.4453 79.014 25.8571 77.5781 26.2287 76.0619C25.5056 75.8209 24.8527 75.5598 24.1698 75.3891C23.0248 75.0979 22.151 74.4854 21.4379 73.5214C20.1021 71.7241 18.6156 70.0372 17.2697 68.2398C16.7977 67.6072 16.3758 67.5369 15.733 67.8582C14.2265 68.6214 12.6596 69.264 11.2133 70.1275C5.83995 73.3407 2.82683 77.8894 3.09801 84.396C3.25871 88.1916 3.12814 92.0072 3.12814 95.8128C3.12814 96.1542 3.12814 96.4956 3.12814 96.827C5.28754 96.827 7.31638 96.827 9.38539 96.827C9.38539 93.7243 9.37535 90.7019 9.38539 87.6795C9.38539 86.6051 9.99806 85.9624 10.9522 85.9725C11.8963 85.9825 12.4889 86.6252 12.4989 87.7096C12.519 90.7019 12.509 93.7243 12.509 96.827ZM74.981 62.5063C74.0771 62.5063 73.2736 62.5063 72.4601 62.5063C69.9893 62.5163 68.764 63.7413 68.764 66.2316C68.764 75.2084 68.764 84.1952 68.764 93.172C68.764 95.6622 69.9793 96.8772 72.4802 96.8772C79.3501 96.8772 86.2099 96.8772 93.0799 96.8772C95.7113 96.8772 96.8864 95.6923 96.8965 93.0616C96.8965 83.663 96.8965 74.2544 96.8965 64.8559C96.8965 64.5647 96.9166 64.2635 96.8764 63.9823C96.7659 63.2292 96.3441 62.6167 95.6008 62.5766C93.9637 62.4862 92.3165 62.5464 90.6493 62.5464C90.6493 62.8477 90.6493 63.0385 90.6493 63.2393C90.6292 65.3178 90.3078 65.6291 88.1886 65.6291C84.6431 65.6291 81.0977 65.5789 77.5522 65.6492C75.5636 65.6893 74.8505 65.1772 75.0313 63.1087C75.0313 62.9481 75.0011 62.7874 74.981 62.5063ZM31.2606 54.393C31.3711 58.3794 30.6882 62.3155 32.6166 65.9604C32.8174 66.342 33.169 66.7637 33.5607 66.9144C36.2122 67.9586 38.8939 68.9527 41.5756 69.9267C41.9371 70.0572 42.4192 70.0773 42.7708 69.9468C45.5228 68.9628 48.2547 67.9386 50.9765 66.8842C51.2879 66.7637 51.6093 66.4424 51.77 66.1311C53.6582 62.4259 53.146 58.4396 53.1259 54.4332C45.8341 58.9818 38.6328 59.0019 31.2606 54.393ZM65.6404 70.4288C63.5011 72.8487 61.8639 75.7707 58.1277 75.9112C58.5394 77.5881 58.9512 79.024 59.2325 80.49C59.3429 81.0523 59.3229 81.7351 59.0918 82.2372C57.0931 86.7457 55.0241 91.224 52.9853 95.7225C52.8246 96.0639 52.694 96.4253 52.5232 96.837C57.1835 96.837 61.7534 96.837 66.474 96.837C65.4596 95.2104 65.6404 93.4732 65.6303 91.7562C65.6303 84.9884 65.6303 78.2207 65.6303 71.453C65.6404 71.1116 65.6404 70.7702 65.6404 70.4288ZM55.7272 64.394C51.9608 75.2184 48.2145 85.9825 44.428 96.8872C45.7839 96.8872 46.9791 96.8571 48.1743 96.8973C48.7769 96.9174 49.0782 96.7366 49.3394 96.1643C51.4887 91.3646 53.6883 86.595 55.8377 81.7954C56.0285 81.3636 56.0386 80.7812 55.9381 80.3193C55.6067 78.7629 55.1848 77.2367 54.8132 75.6903C54.5219 74.4854 54.8634 73.8528 56.0386 73.4411C56.7717 73.18 57.515 72.9491 58.2482 72.688C58.8809 72.4571 59.7045 72.3667 60.1063 71.9149C61.5927 70.248 62.9286 68.4607 64.4351 66.583C61.4421 65.8199 58.6298 65.117 55.7272 64.394ZM20.0016 66.573C20.6143 67.3461 21.2069 67.9486 21.6387 68.6515C23.1955 71.1618 25.3047 72.8688 28.2777 73.3909C28.3379 73.4009 28.4082 73.421 28.4685 73.4511C29.513 73.8528 29.8947 74.5055 29.6537 75.5799C29.4729 76.4033 29.3323 77.2467 29.0209 78.0299C28.1873 80.0984 28.5087 81.946 29.493 83.9442C31.6021 88.1815 33.4602 92.5495 35.4188 96.8471C36.9253 96.8471 38.3817 96.8471 39.9786 96.8471C36.2022 85.9825 32.4458 75.1983 28.6895 64.4041C25.7366 65.1371 22.9545 65.84 20.0016 66.573ZM50.2132 70.5794C48.1341 71.3525 46.256 71.955 44.4682 72.7583C42.9315 73.4511 41.5555 73.4712 40.0087 72.7784C38.1908 71.9651 36.2825 71.3626 34.1834 70.5794C36.8751 78.3111 39.4764 85.8018 42.0878 93.3025C42.1581 93.3025 42.2385 93.2925 42.3088 93.2925C44.9201 85.8118 47.5215 78.3312 50.2132 70.5794ZM23.3361 35.7666C23.4064 35.5357 23.4466 35.4554 23.4466 35.365C23.4466 32.0213 23.4768 28.6776 23.4265 25.3339C23.4165 24.8921 23.0951 24.3298 22.7436 24.0386C21.2772 22.8336 19.2483 23.5365 18.9571 25.4142C18.2841 29.6917 20.4636 32.8145 23.3361 35.7666ZM60.9499 35.847C63.0491 33.8387 64.6561 31.7803 65.2286 29.1294C65.4998 27.8642 65.5198 26.4986 65.3993 25.2033C65.2888 24.0185 64.1941 23.3457 63.0692 23.4662C61.8338 23.5967 60.96 24.3298 60.9499 25.3439C60.9399 28.7479 60.9499 32.1619 60.9499 35.847ZM78.1749 62.436C81.3287 62.436 84.4021 62.436 87.4654 62.436C87.4654 61.4017 87.4654 60.4378 87.4654 59.4337C84.3519 59.4337 81.2785 59.4337 78.1749 59.4337C78.1749 60.4478 78.1749 61.4118 78.1749 62.436Z" fill="#58B765"/>
        <path d="M42.6682 48.5691C40.4975 48.61 38.7728 48.1197 37.2265 47.0064C36.1858 46.2608 35.9182 45.3415 36.4732 44.4938C37.0382 43.6358 37.9204 43.5847 38.9809 44.3406C40.9038 45.7194 43.8278 45.7297 45.7805 44.3508C46.8609 43.595 47.7232 43.646 48.2882 44.4938C48.8432 45.3313 48.5756 46.2404 47.5448 47.0064C46.1274 48.0482 44.3928 48.5691 42.6682 48.5691Z" fill="#58B765"/>
        <path d="M43.8036 38.0021C43.8036 38.7963 43.8218 39.5905 43.7944 40.3748C43.767 41.2769 43.2094 41.8847 42.4232 41.9044C41.5913 41.924 40.988 41.3161 40.9697 40.365C40.9423 38.8453 40.9514 37.3256 40.9697 35.8059C40.9788 34.8941 41.5548 34.3058 42.3409 34.2862C43.1728 34.2666 43.767 34.8745 43.7944 35.8157C43.8218 36.5413 43.8036 37.2766 43.8036 38.0021Z" fill="#58B765"/>
        <path d="M81.4282 74.9616C81.807 71.4693 83.5988 69.1777 86.6909 68.7474C88.7387 68.4572 90.8581 68.5973 92.9468 68.6674C93.7454 68.6974 94.2164 69.3378 94.2164 70.1584C94.2266 71.3892 94.4007 72.6601 94.155 73.8409C93.9195 74.9916 93.2642 76.0524 92.7113 77.3432C94.6157 81.6561 93.899 86.0991 91.4827 90.322C89.8137 93.2439 86.7626 94.0345 83.5886 92.7036C83.2814 92.5735 82.8207 92.5835 82.5033 92.7136C79.5852 93.9644 76.6672 93.324 74.9573 90.7723C72.5716 87.1999 71.8037 83.2272 72.8174 79.0644C73.7389 75.2818 77.0972 73.6007 80.8548 74.8015C81.0493 74.8616 81.2336 74.9016 81.4282 74.9616ZM75.5204 82.2265C75.6842 84.468 76.1655 86.5694 77.2712 88.4907C78.377 90.412 80.0562 90.7122 81.8275 89.3813C82.8104 88.6408 83.3531 88.6408 84.3053 89.3613C86.0766 90.7122 87.8172 90.4521 88.841 88.5007C89.4861 87.2799 89.9059 85.929 90.2335 84.5881C90.6533 82.8369 90.6943 81.0457 90.0287 79.3246C89.4349 77.7935 88.0629 77.1631 86.4964 77.7435C85.7387 78.0237 85.022 78.474 84.3667 78.9443C83.3326 79.6848 82.8207 79.6848 81.7968 78.9643C81.1108 78.474 80.3634 78.0237 79.575 77.7335C78.1006 77.1931 76.7081 77.7835 76.1757 79.2245C75.8276 80.1751 75.7252 81.2258 75.5204 82.2265ZM84.7251 75.0117C86.138 74.4213 87.5305 74.2511 88.9639 74.5914C90.3769 74.9316 91.0014 74.4813 91.0424 73.0303C91.0526 72.62 91.0424 72.2098 91.0424 71.7394C89.8137 71.7394 88.6875 71.6594 87.5817 71.7595C85.8616 71.9096 84.766 73.1704 84.7251 75.0117Z" fill="#58B765"/>
    </symbol>

    //自定義方案icon
    <symbol id="customize-icon" viewBox="0 0 100 108" fill="none" xmlns="http://www.w3.org/2000/svg">
        <path d="M37.0457 14.3603C37.155 13.6248 37.2642 12.9208 37.3844 12.1433C34.729 11.723 32.1719 11.3237 29.6149 10.9244C26.0087 10.3676 22.4026 9.84219 18.7965 9.2748C16.9934 8.9911 16.0755 9.60052 15.8132 11.3342C15.4417 13.6984 15.0483 16.052 14.6658 18.4161C14.5347 19.2252 14.1304 19.8241 13.1906 19.7085C12.2945 19.5929 12.076 18.952 12.2071 18.1639C12.6442 15.5161 12.9939 12.8578 13.5403 10.2415C14.0539 7.79327 16.3487 6.50088 18.9058 6.90015C25.1455 7.87733 31.3852 8.81248 37.756 9.77915C37.9199 8.86501 38.1057 7.99291 38.2368 7.1103C38.4772 5.5237 38.7832 5.26102 40.466 5.50269C42.6188 5.8179 44.7606 6.17515 46.968 6.52189C47.1538 5.47116 47.3068 4.47297 47.5253 3.48529C48.0389 1.11065 50.3774 -0.37088 52.8689 0.0809331C55.2184 0.501224 56.8466 2.80232 56.4423 5.11392C56.2893 5.99653 56.1691 6.88965 56.0161 7.89834C57.8847 8.19255 59.655 8.50776 61.4253 8.74943C64.3758 9.14871 64.4522 9.22226 63.9714 12.0067C63.884 12.5426 63.7966 13.0679 63.6873 13.7194C66.146 14.1081 68.5501 14.4864 70.9542 14.8542C74.8882 15.4531 78.8331 16.0205 82.7779 16.6404C85.4115 17.0607 87.0288 19.2357 86.6135 21.7995C85.4552 28.9864 84.2641 36.1734 83.0948 43.3499C83.0293 43.7386 83.0074 44.1379 82.9418 44.7789C83.4117 44.4636 83.7286 44.2535 84.0346 44.0329C87.302 41.7633 90.5694 39.4937 93.8476 37.2241C95.7928 35.8792 97.9783 36.0999 99.2568 37.739C100.546 39.3886 100.131 41.4586 98.2187 42.8665C97.8035 43.1713 97.3991 43.476 96.9948 43.7702C98.8416 47.101 98.6449 47.868 95.4431 50.0956C94.8967 50.4738 94.394 50.9992 93.7712 51.1883C93.2685 51.3459 92.4489 51.2829 92.0992 50.9677C91.531 50.4633 91.7605 49.7593 92.3943 49.2865C93.1374 48.7296 93.9023 48.2042 94.6563 47.6579C96.0441 46.6597 96.055 46.5336 94.8749 45.1256C91.8916 47.1955 88.8974 49.276 85.9142 51.3459C85.2367 51.8082 84.5701 52.2916 83.9035 52.7539C81.2371 54.5927 81.2699 54.6032 80.7782 57.6503C79.2155 67.4115 77.631 77.1728 76.0574 86.934C75.1395 92.6185 74.2216 98.3029 73.3036 103.987C72.8556 106.761 70.6154 108.369 67.7196 107.928C59.4692 106.667 51.2298 105.364 42.9794 104.103C32.314 102.474 21.6486 100.856 10.9723 99.2381C8.59006 98.8808 6.20783 98.5236 3.83653 98.1453C1.21389 97.725 -0.348764 95.4975 0.0664874 92.9757C1.26853 85.6101 2.42686 78.2445 3.61798 70.8789C4.71074 64.0492 5.82536 57.2195 6.92906 50.3898C7.84698 44.7053 8.7649 39.0209 9.66097 33.3259C9.7921 32.4538 10.109 31.8444 11.1471 31.96C11.9776 32.0546 12.2727 32.727 12.0978 33.8303C10.9941 40.6915 9.90138 47.5633 8.79769 54.4351C7.70492 61.2648 6.60123 68.0945 5.49753 74.9242C4.50312 81.1235 3.5087 87.3123 2.51428 93.5011C2.32851 94.6884 2.9951 95.6341 4.29549 95.8442C8.04368 96.4536 11.8028 97.0105 15.551 97.5779C22.4573 98.6392 29.3635 99.7109 36.2807 100.762C45.0884 102.107 53.8961 103.43 62.7038 104.754C64.343 105.007 65.9712 105.248 67.5994 105.532C69.7194 105.9 70.5717 105.395 70.9105 103.378C71.9705 97.0526 72.9758 90.7272 74.003 84.3913C75.1067 77.5931 76.1995 70.8054 77.2922 64.0072C77.6747 61.6115 78.0572 59.2264 78.4615 56.6836C76.9644 57.5977 75.7514 58.2597 75.4673 60.2035C73.7408 71.667 71.8066 83.0884 69.9489 94.5308C69.5555 96.958 69.173 99.3957 68.7796 101.823C68.6048 102.895 68.0802 103.231 66.9765 103.063C56.3876 101.445 45.7987 99.8265 35.1989 98.2189C25.8339 96.8004 16.458 95.4029 7.09297 94.0054C5.14785 93.7112 4.91837 93.4591 5.21341 91.5993C6.37175 84.3388 7.57379 77.0887 8.74305 69.8282C9.91231 62.5677 11.0597 55.3072 12.229 48.0466C13.4747 40.3238 14.7423 32.6009 15.999 24.8781C16.6328 20.9799 17.2557 17.0817 17.8676 13.1835C18.0753 11.8806 18.4577 11.5549 19.8237 11.765C25.3968 12.6056 30.9699 13.4672 36.543 14.3183C36.6851 14.3498 36.8381 14.3498 37.0457 14.3603ZM20.2062 14.2027C16.0427 40.0611 11.8902 65.8249 7.71585 91.6938C27.3419 94.6989 46.8587 97.683 66.4411 100.688C68.6266 87.2493 70.7794 73.9786 72.9867 60.4347C72.0033 61.1072 71.3039 61.6535 70.528 62.0843C70.0254 62.368 69.4462 62.5992 68.878 62.6622C67.7196 62.7988 66.5504 62.8093 65.3811 62.8619C64.0151 62.9249 63.4578 62.1684 63.9277 60.9075C64.2883 59.9514 64.6052 58.9742 65.097 58.0916C65.4794 57.3876 65.993 56.6731 66.6487 56.1898C68.9763 54.4666 71.4132 52.88 73.7517 51.1673C74.1997 50.8416 74.5822 50.2321 74.6696 49.7068C75.369 45.714 75.9919 41.7002 76.6366 37.697C77.4015 32.8741 78.1665 28.0513 78.9423 23.1444C73.4457 22.3038 68.0037 21.4842 62.5181 20.6437C62.3978 21.3897 62.2886 21.9886 62.2012 22.598C61.9935 24.006 61.5236 24.3632 60.0812 24.1426C52.5739 22.9973 45.0666 21.8415 37.5593 20.6857C36.4774 20.5176 36.1387 20.0027 36.3245 18.91C36.4447 18.206 36.543 17.4915 36.6632 16.6929C31.1775 15.8734 25.7574 15.0433 20.2062 14.2027ZM38.8706 18.5107C45.9736 19.5929 52.8908 20.6437 59.8736 21.7049C60.4746 18.0904 61.0319 14.6755 61.6111 11.2081C54.5409 10.1154 47.6237 9.04364 40.63 7.9719C40.0289 11.5759 39.4607 14.9908 38.8706 18.5107ZM77.3797 48.6666C77.9698 48.2673 78.3304 47.9416 78.7675 47.7524C79.9367 47.2166 80.2536 46.2604 80.3738 45.1361C80.494 43.9908 80.7126 42.8455 80.8984 41.7002C81.9911 34.9861 83.0948 28.2719 84.1876 21.5578C84.428 20.0763 83.7177 19.2042 82.1878 18.9625C77.6201 18.248 73.0632 17.5335 68.4955 16.8295C66.8017 16.5668 65.097 16.3357 63.3267 16.073C63.1846 16.8821 63.0754 17.544 62.9442 18.269C63.4251 18.3636 63.8622 18.4792 64.2993 18.5422C69.6429 19.3513 74.9974 20.1498 80.3411 20.9589C81.2808 21.0955 81.7617 21.5893 81.6196 22.5245C81.401 23.9535 81.1606 25.3824 80.9312 26.8114C79.751 34.0194 78.5817 41.2274 77.3797 48.6666ZM93.4324 43.2448C92.9625 42.6144 92.5254 42.0365 92.0774 41.4376C91.837 41.5952 91.684 41.6897 91.531 41.7948C83.7396 47.1955 75.9481 52.5753 68.1895 58.018C67.5011 58.5014 67.1405 59.426 66.5504 60.2666C68.1349 60.5083 69.1293 60.193 70.1456 59.468C74.2871 56.505 78.4943 53.6365 82.6796 50.7365C86.2529 48.2568 89.8153 45.7666 93.4324 43.2448ZM49.4814 6.93167C50.902 7.13131 52.2351 7.33095 53.6011 7.52008C53.765 6.49037 53.9071 5.63928 54.0273 4.78819C54.1802 3.65341 53.459 2.65521 52.3553 2.44507C51.2844 2.24543 50.2572 2.85485 49.984 3.94761C49.7436 4.88276 49.6453 5.85993 49.4814 6.93167ZM95.5196 41.8473C96.0769 41.4586 96.5577 41.1434 97.0276 40.7966C97.6068 40.3658 97.7925 39.7984 97.3554 39.1995C96.8855 38.5481 96.2299 38.5691 95.5851 38.9789C95.0934 39.2941 94.6454 39.6513 94.1099 40.0401C94.6017 40.66 95.0388 41.2274 95.5196 41.8473Z" fill="#58B765"/>
        <path d="M10.7527 26.2144C11.1185 25.7762 11.4487 25.0836 11.8502 24.9564C12.4748 24.7585 12.8942 25.4652 12.9031 26.4971C12.912 27.4441 12.5194 28.1509 11.9305 28.0237C11.52 27.9247 11.1542 27.3028 10.7705 26.9211C10.7705 26.6667 10.7616 26.4405 10.7527 26.2144Z" fill="#58B765"/>
        <path d="M44.5998 40.0795C45.1875 38.4819 45.6011 36.9355 46.3303 35.5529C46.7548 34.7541 47.6799 34.1704 48.4527 33.5559C49.0513 33.0848 49.7587 33.1053 50.2267 33.7505C50.6839 34.3752 50.4988 34.9794 49.8349 35.3993C47.8758 36.6078 47.3752 38.3897 47.4949 40.5199C48.4636 40.2741 49.3778 39.9874 50.3138 39.8133C55.7884 38.8301 60.8929 42.3633 61.2738 47.5555C61.3718 48.8664 61.0235 50.3206 60.4684 51.5496C58.727 55.3388 56.8115 59.0461 54.9177 62.7636C53.3177 65.8871 49.737 67.3311 46.4283 65.9179C43.6311 64.7197 40.8884 64.3407 37.83 64.607C34.0207 64.9347 31.3977 62.8046 30.7447 59.2304C30.3855 57.2846 30.1896 55.3183 29.9393 53.352C29.6781 51.355 29.493 49.3477 29.1774 47.361C28.5897 43.7151 29.7651 40.735 33.0956 38.7789C36.4804 36.7819 39.9415 37.0994 43.2611 39.1271C43.7617 39.4343 44.2406 39.7723 44.7413 40.0898C44.7304 40.0898 44.7739 40.0795 44.5998 40.0795ZM31.4303 45.9989C32.0181 50.3002 32.6058 54.8882 33.3024 59.466C33.4874 60.6847 34.3799 61.6371 35.6097 62.0058C36.5784 62.3028 37.7103 62.4359 38.6899 62.272C41.5305 61.8009 44.0774 62.3949 46.6242 63.5317C49.4104 64.7811 51.5872 63.9516 52.9042 61.3401C54.6456 57.8683 56.2999 54.3454 58.1284 50.9146C60.5664 46.3164 56.9094 41.9127 52.0117 41.9844C50.7056 42.0049 49.3669 42.4247 48.137 42.8958C46.4609 43.5205 45.0243 43.4488 43.642 42.3121C42.989 41.7795 42.2924 41.288 41.5632 40.8578C39.3211 39.5572 36.9485 39.3729 34.6193 40.5711C32.5187 41.6567 31.5065 43.4386 31.4303 45.9989Z" fill="#58B765"/>
        <path d="M45.1299 74.7699C47.6244 75.1371 50.5104 75.5779 53.3965 75.9871C56.3609 76.4173 59.3252 76.8476 62.2896 77.2253C64.1129 77.4562 65.5336 78.8518 65.5895 80.5833C65.6454 82.4301 64.3814 84.0566 62.4574 84.1091C60.634 84.1616 58.7883 83.8782 56.9649 83.6264C52.703 83.0283 48.4634 82.3567 44.2014 81.7166C42.0984 81.4018 40.6777 79.7753 40.8791 77.9389C41.114 76.0291 42.6801 74.7384 45.1299 74.7699ZM44.9733 77.1309C44.179 77.0679 43.5526 77.2883 43.4631 78.1068C43.3736 78.8938 43.877 79.2506 44.6824 79.3765C50.1413 80.2055 55.6002 81.0765 61.0703 81.9055C61.898 82.0314 62.6587 81.832 62.7929 80.8981C62.9272 79.9432 62.2336 79.6703 61.3835 79.5549C59.1462 79.2296 56.8978 78.8938 54.6605 78.558C51.4277 78.0753 48.1949 77.6031 44.9733 77.1309Z" fill="#58B765"/>
        <path d="M49.5955 93.4615C47.3814 93.0667 44.7143 92.6825 42.0883 92.0636C40.3789 91.6581 39.4521 89.6307 39.8949 87.838C40.3274 86.0986 42.006 84.9248 43.6845 85.1916C46.0015 85.5651 48.3082 85.9172 50.6252 86.312C52.6642 86.6535 53.9308 88.2648 53.7455 90.2176C53.5601 92.117 52.0257 93.4615 49.5955 93.4615ZM43.0151 87.4325C42.7783 87.7206 42.1913 88.1154 42.181 88.5209C42.1707 88.9371 42.6753 89.652 43.0563 89.7374C45.3013 90.2389 47.5771 90.6337 49.8632 90.9325C50.2339 90.9859 50.893 90.4203 51.0371 89.9935C51.1401 89.6947 50.6561 88.8517 50.3369 88.7877C48.0096 88.2755 45.6617 87.902 43.0151 87.4325Z" fill="#58B765"/>
        <path d="M55.9141 90.8327C55.9254 88.7808 57.5867 87.2091 59.7114 87.2309C61.7231 87.2528 63.4296 88.9008 63.4409 90.8218C63.4522 92.7972 61.7118 94.4999 59.6662 94.4999C57.598 94.5108 55.9028 92.8518 55.9141 90.8327ZM58.2874 90.5707C58.2874 90.7454 58.2874 90.92 58.2761 91.0946C58.7169 91.4111 59.1237 91.935 59.6097 92.0005C60.333 92.0987 60.9546 91.5421 60.8077 90.8436C60.7172 90.4179 60.0844 89.8613 59.6323 89.7958C59.2367 89.7412 58.7508 90.287 58.2874 90.5707Z" fill="#58B765"/>
    </symbol>

    //11邊形-營養師方案裝飾圖
    <symbol id="hendecagon" viewBox="0 0 219 107" fill="none" xmlns="http://www.w3.org/2000/svg">
        <path d="M110.384 2.40512C111.182 0.924261 113.341 1.03082 113.989 2.58311L125.608 30.3866C126.426 32.3443 128.63 33.3226 130.631 32.6159L177.875 15.9268C179.972 15.186 181.53 17.9073 179.831 19.3413L161.806 34.5457C158.884 37.0113 160.755 41.7793 164.574 41.5987L210.877 39.4097C213.33 39.2937 213.793 42.8458 211.392 43.3626L183.797 49.3039C179.511 50.2268 179.618 56.3787 183.934 57.1517L215.991 62.8932C218.435 63.331 218.051 66.9469 215.569 66.8607L176.518 65.5043C172.293 65.3576 170.758 71.0122 174.478 73.0213L197.017 85.1953C199.115 86.3284 197.827 89.5217 195.53 88.8816L146.183 75.1294C143.274 74.3187 140.55 76.9006 141.204 79.8488L146.245 102.574C146.659 104.441 144.467 105.769 143.004 104.536L110.909 77.5041C109.533 76.3451 107.553 76.2474 106.07 77.2652L71.4691 101.005C69.8918 102.087 67.8411 100.55 68.4372 98.7326L75.6914 76.6148C76.6325 73.7453 74.1762 70.9078 71.2015 71.4281L20.7401 80.2533C18.3915 80.664 17.4239 77.3594 19.623 76.4384L43.2515 66.5435C47.1511 64.9105 46.1811 59.1322 41.962 58.8621L2.96705 56.3658C0.488924 56.2072 0.462417 52.571 2.93781 52.3761L35.4047 49.8197C39.7758 49.4755 40.4883 43.3641 36.3137 42.0236L9.43799 33.3934C7.10005 32.6426 7.91084 29.1534 10.3402 29.5104L56.2018 36.249C59.985 36.8049 62.3168 32.2444 59.651 29.5029L43.212 12.5973C41.6617 11.0029 43.4808 8.4483 45.4946 9.39194L90.865 30.6529C92.7863 31.5532 95.0763 30.7968 96.0832 28.9292L110.384 2.40512Z" fill="#58C067" stroke="#3D3D3D" stroke-width="2"/>
    </symbol>

    //橢圓形-自定義方案裝飾圖
    <symbol id="ovalShape" viewBox="0 0 200 64" fill="none" xmlns="http://www.w3.org/2000/svg">
        <path d="M198.926 53.1101C198.337 55.9128 195.298 58.3041 189.705 60.0485C184.18 61.7713 176.449 62.7686 167.04 63.0024C148.235 63.4697 122.896 60.8842 95.4903 55.1227C68.085 49.3613 43.8497 41.5245 26.8243 33.5244C18.3061 29.5217 11.6314 25.496 7.26819 21.6944C2.85059 17.8454 1.03192 14.4328 1.62114 11.6301C2.21036 8.82745 5.24919 6.43611 10.8427 4.69177C16.3673 2.96891 24.098 1.97168 33.5069 1.73788C52.3124 1.27059 77.6517 3.85601 105.057 9.61749C132.462 15.379 156.698 23.2158 173.723 31.2159C182.241 35.2185 188.916 39.2442 193.279 43.0459C197.697 46.8949 199.515 50.3074 198.926 53.1101Z" stroke="#58C067" stroke-width="1.5"/>
    </symbol>

    //logo-只有小精靈
    <symbol id="pac-man" viewBox="0 0 50 50" fill="none" xmlns="http://www.w3.org/2000/svg">
        <path d="M38.1461 42.0137C38.1461 42.023 38.1367 42.0418 38.1367 42.0511C38.1367 42.0324 38.1367 42.023 38.1461 42.0137Z" fill="#58B665"/>
        <path d="M41.7442 38.6641L41.7354 38.6818C41.7354 38.6729 41.7442 38.6729 41.7442 38.6641Z" fill="#58B665"/>
        <path d="M41.7266 11.4619C41.8595 11.5501 41.8595 11.5501 41.7266 11.4619V11.4619Z" fill="#58B665"/>
        <path d="M28.319 11.7002C27.1459 11.7002 26.1934 12.6875 26.1934 13.8951C26.1934 15.1115 27.1459 16.09 28.319 16.09C29.4833 16.09 30.4359 15.1115 30.4359 13.8951C30.4359 12.6875 29.4833 11.7002 28.319 11.7002Z" fill="#2E8B3B"/>
        <path d="M38.1988 41.9434C38.181 41.961 38.1544 41.9874 38.1367 42.0051C38.1633 41.9874 38.181 41.961 38.1988 41.9434Z" fill="#58B665"/>
        <path d="M49.2942 19.289C48.5092 19.3154 47.7065 19.2361 46.9215 19.3155C46.1542 19.386 45.8984 19.1392 45.916 18.3106C45.9513 16.2391 45.8896 14.1588 45.8719 12.0873C45.8543 11.9903 45.8455 11.9022 45.8278 11.8052C45.625 11.3998 45.2545 11.5672 44.9546 11.5584C44.1697 11.532 43.3847 11.5143 42.6085 11.5672C41.9382 11.6113 41.6471 11.3998 41.7 10.6593C41.7529 9.93649 41.7265 9.21368 41.7088 8.49968C41.7 8.06775 41.6647 7.6182 41.0561 7.79449C39.9889 7.78568 38.9217 7.78568 37.8632 7.77686C37.8721 7.71516 37.8544 7.6799 37.8015 7.66227C37.8191 6.58686 37.7927 5.51146 37.8544 4.44487C37.8985 3.6339 37.581 3.45761 36.8666 3.47524C34.6968 3.51931 32.5182 3.43998 30.3485 3.51931C29.4576 3.54576 29.2459 3.25487 29.2636 2.35576C29.2724 1.65939 29.634 0.85724 28.9813 0.231389C28.6991 -0.138833 28.3022 0.0462777 27.967 0.0462777C25.171 0.0286481 22.375 0.0374629 19.579 0.0374629C16.836 0.0374629 16.8095 0.037463 16.8272 2.89346C16.836 3.70442 16.5802 3.86309 15.8746 3.86309C13.6784 3.86309 11.4733 3.73968 9.26828 3.93361C9.09188 3.86309 8.91547 3.84546 8.77435 4.01294C8.4039 4.12753 8.55385 4.4625 8.54503 4.7005C8.51857 5.38805 8.47446 6.08442 8.55385 6.76316C8.64205 7.63583 8.28924 7.83857 7.54835 7.78568C6.78981 7.72398 6.03128 7.79449 5.28157 7.75924C4.63769 7.73279 4.38191 8.02368 4.39955 8.67597C4.41719 9.32827 4.35545 9.98938 4.40837 10.6417C4.47893 11.3998 4.17905 11.6289 3.51753 11.5496C3.32349 11.5232 3.12063 11.532 2.92658 11.5496C2.01811 11.6289 0.827386 11.1265 0.271716 11.7788C-0.266314 12.4135 0.174694 13.6299 0.0953126 14.5819C0.0335715 15.3576 0.324637 15.6132 1.05671 15.5956C3.32349 15.5515 5.59027 15.5956 7.85705 15.5603C8.448 15.5515 8.68615 15.7014 8.65969 16.3625C8.62441 17.147 8.69497 17.9403 8.72143 18.7337C8.73907 18.8218 8.75671 18.91 8.76553 18.9981C9.03895 19.3948 9.43586 19.192 9.76221 19.192C13.1844 19.2097 16.6067 19.2273 20.0289 19.192C20.6727 19.1832 20.9197 19.3419 20.8668 20.0471C20.8139 20.8404 20.8844 21.6426 20.8403 22.4271C20.805 23.0794 21.0608 23.2733 21.6518 23.2645C23.3276 23.2292 25.0034 23.2557 26.6793 23.2469C29.29 23.2469 29.2724 23.2469 29.2107 25.9883C29.2018 26.6317 29.0166 26.8257 28.4257 26.808C26.7763 26.7728 25.1357 26.7992 23.4864 26.7992C20.6022 26.7904 20.6022 26.7904 20.9197 29.9197C20.9021 30.096 20.8932 30.2723 20.8756 30.4486C20.3817 30.713 19.8437 30.6248 19.3233 30.6248C16.0598 30.6072 12.7963 30.5896 9.5417 30.4926C8.64205 30.4662 8.34216 30.7571 8.42154 31.665C8.47446 32.2468 8.39508 32.8462 8.43918 33.428C8.50093 34.0891 8.23632 34.2389 7.64537 34.2301C5.66965 34.2037 3.69394 34.2213 1.7094 34.2213C-0.257494 34.2301 0.130593 34.1155 0.112953 35.9578C0.0953126 38.3378 0.112953 38.3378 2.37091 38.3378C4.47893 38.329 4.47893 38.329 4.47893 40.5856C4.47011 42.8951 4.37309 42.472 6.23414 42.4896C8.43036 42.516 8.48328 42.5072 8.4039 44.8167C8.36862 45.8568 8.69497 46.1301 9.63873 46.1037C11.8085 46.0419 13.9871 46.1036 16.1568 46.0684C16.8624 46.0508 17.0918 46.2976 17.0388 47.0116C16.9859 47.6374 17.0741 48.2633 17.0124 48.8803C16.933 49.7265 17.1888 50.0086 18.0355 49.9998C20.9726 49.9381 23.9009 49.9734 26.838 49.9734C29.4135 49.9734 29.4576 49.9734 29.4135 47.3201C29.3959 46.4298 29.7134 46.2888 30.4367 46.3064C32.6152 46.3417 34.7938 46.2976 36.9636 46.3328C37.6692 46.3505 37.9073 46.0948 37.8721 45.3808C37.8191 44.3407 37.828 43.3005 37.8191 42.2692C37.8632 42.2516 37.8897 42.2163 37.9073 42.1634C38.2337 42.1722 38.5688 42.2075 38.8952 42.1899C39.7772 42.1458 40.8885 42.5689 41.4795 42.0136C42.1057 41.4318 41.6206 40.2418 41.7088 39.3251V39.2193C41.6559 38.5758 41.9382 38.3731 42.5379 38.4083C43.3935 38.4436 44.249 38.3731 45.1046 38.426C45.8102 38.47 46.0042 38.188 45.9954 37.474C45.969 35.3231 46.0042 33.1811 46.0131 31.0303C47.0979 31.0039 48.1916 30.9598 49.2765 30.9598C49.7528 30.9598 50.0086 30.854 49.9998 30.2811C49.991 26.8521 49.991 23.4232 49.9998 19.9942C49.9998 19.4477 49.7969 19.2714 49.2942 19.289ZM28.3198 16.0892C27.1467 16.0892 26.1942 15.1108 26.1942 13.8943C26.1942 12.6867 27.1467 11.6995 28.3198 11.6995C29.4841 11.6995 30.4367 12.6867 30.4367 13.8943C30.4367 15.1108 29.4841 16.0892 28.3198 16.0892Z" fill="#58B665"/>
        <path d="M30.4368 13.8951C30.4368 15.1115 29.4843 16.09 28.32 16.09C27.1469 16.09 26.1943 15.1115 26.1943 13.8951C26.1943 12.6875 27.1469 11.7002 28.32 11.7002C29.4843 11.7002 30.4368 12.6875 30.4368 13.8951Z" fill="#3D3D3D"/>
        <path d="M6.63965 20.6297C6.64847 20.5592 6.69257 20.471 6.78959 20.3652C6.70139 20.4005 6.65729 20.5151 6.63965 20.6297Z" fill="#DF4923"/>
        <path d="M6.79907 20.3476C6.79025 20.3565 6.79025 20.3565 6.79025 20.3653C6.69323 20.4711 6.64913 20.5592 6.64031 20.6297C6.56975 20.9294 6.36688 21.0088 6.07582 21.0176C5.51133 21.0264 5.50251 21.044 5.47604 21.6082C5.46722 21.7933 5.48486 21.9872 5.22026 22.0048C4.95566 22.0313 4.87627 21.8638 4.84981 21.6522C4.80571 21.3349 4.61167 21.2468 4.31178 21.2556C4.04718 21.2644 3.78257 21.2468 3.50915 21.2556C3.20044 21.2644 3.04168 21.141 3.03286 20.8236C3.02404 20.5328 2.9182 20.3741 2.56539 20.4093C2.53011 20.3917 2.48601 20.3741 2.45073 20.3476C2.28315 20.2507 1.98326 20.427 1.92152 20.2066C1.84214 19.951 1.88624 19.6601 1.88624 19.3868C1.88624 19.2105 2.00972 19.1841 2.14202 19.1841C2.9623 19.1841 3.78257 19.1841 4.60285 19.1753C4.80571 19.1753 4.87627 19.2899 4.87627 19.4662C4.87627 19.6425 4.88509 19.8276 4.87627 20.0039C4.86745 20.2595 4.99976 20.3388 5.24672 20.3388C5.51133 20.3476 5.53779 20.1978 5.53779 19.9951C5.52897 19.8981 5.54661 19.8011 5.52897 19.7042C5.44958 19.2722 5.63481 19.1488 6.067 19.1753C6.58739 19.2105 6.58738 19.1841 6.58738 19.7482C6.58738 20.0832 6.86963 20.2595 6.79907 20.3476Z" fill="#58B665"/>
        <path d="M10.6263 22.7278C10.6263 22.1284 10.6263 22.1108 9.99128 22.1196C9.62083 22.1284 9.47971 21.9962 9.50617 21.6348C9.51499 21.4497 9.57673 21.1235 9.44443 21.0883C9.04752 20.9737 9.02106 20.6211 8.83584 20.3743C8.19197 20.2244 7.53928 20.3302 6.88658 20.3302C6.8513 20.3302 6.82484 20.339 6.79838 20.3478C6.78956 20.3566 6.78956 20.3566 6.78956 20.3654C6.69254 20.4712 6.64844 20.5594 6.63962 20.6299C6.56906 20.9296 6.36619 21.0089 6.07513 21.0177C5.51064 21.0266 5.50182 21.0442 5.47536 21.6083C5.46654 21.7934 5.48418 21.9874 5.21957 22.005C4.95497 22.0314 4.87559 21.864 4.84913 21.6524C4.80503 21.3351 4.61098 21.2469 4.3111 21.2557C4.04649 21.2646 3.78189 21.2469 3.50846 21.2557C3.19976 21.2646 3.04099 21.1412 3.03217 20.8238C3.03217 20.5329 2.90869 20.3478 2.56471 20.4095C2.53824 20.5329 2.5206 20.6563 2.49414 20.7709C2.49414 20.7797 2.49414 20.7797 2.49414 20.7886C2.46768 20.8679 2.4324 20.9472 2.35302 20.9649C1.96493 21.0089 1.99139 21.2822 1.99139 21.5554C1.98257 22.0932 1.98257 22.0932 1.4269 22.102C1.35634 22.102 1.28578 22.1196 1.21522 22.102C0.791853 22.0491 0.677191 22.2342 0.686011 22.6309C0.712472 23.7239 0.694831 24.8257 0.694831 25.9188C0.694831 26.7738 0.694831 26.7826 1.55921 26.7914C1.91201 26.8003 2.00022 26.9501 1.99139 27.2498C1.98257 27.6641 1.99139 28.0872 1.98257 28.5015C1.97375 28.7483 2.05314 28.9158 2.33538 28.8894C2.74111 28.8453 2.87341 29.048 2.83813 29.4094C2.80285 29.7268 2.96161 29.8237 3.2615 29.8061C3.63194 29.7885 4.00239 29.7885 4.36402 29.8149C4.76975 29.8414 4.99025 29.7268 4.92851 29.286C4.89323 28.9951 5.04317 28.8982 5.33424 28.907C5.7135 28.9246 6.10159 28.9246 6.48086 28.907C6.78956 28.8982 6.98361 28.9863 6.95715 29.3213C6.9395 29.5769 7.05417 29.6651 7.30995 29.6563C7.74214 29.6386 8.18315 29.6474 8.62416 29.6563C8.87112 29.6563 8.9946 29.5593 8.97696 29.3125C8.97696 29.1626 8.9505 28.9511 9.14454 28.9334C9.48853 28.8894 9.46207 28.6514 9.47089 28.4398C9.48853 28.1225 9.47089 27.8051 9.47971 27.479C9.47971 26.8003 9.47971 26.7826 10.1589 26.8003C10.5381 26.8091 10.6352 26.668 10.6263 26.3154C10.6087 25.1166 10.6263 23.9266 10.6263 22.7278ZM3.72897 23.2655C3.72015 23.292 3.71133 23.336 3.70251 23.336C3.11156 23.3449 3.2615 23.7768 3.22622 24.1206C3.19976 24.4291 3.36734 24.7729 3.11156 25.0549C3.07627 25.0637 3.04981 25.0726 3.02335 25.0814C2.02668 25.2841 1.89437 25.1783 1.89437 24.2087C1.89437 24.1999 1.88555 24.1823 1.89437 24.1646C1.91201 23.8561 1.76207 23.4771 1.95611 23.2391C2.15016 23.0099 2.53824 23.1774 2.84695 23.1509C3.28796 23.1069 3.13802 22.7631 3.11156 22.5515C3.08509 22.2166 3.2174 22.1372 3.51728 22.1549C3.72897 22.1637 3.84363 22.2342 3.81717 22.4546C3.79071 22.719 3.88773 23.0099 3.72897 23.2655Z" fill="#DF4923"/>
        <path d="M3.7288 23.2653C3.71998 23.2918 3.71116 23.3358 3.70234 23.3358C3.11139 23.3446 3.26133 23.7766 3.22605 24.1203C3.19959 24.4289 3.36718 24.7726 3.11139 25.0547C3.07611 25.0635 3.04965 25.0723 3.02319 25.0812C2.02651 25.2839 1.89421 25.1781 1.89421 24.2085C1.89421 24.1997 1.88539 24.182 1.89421 24.1644C1.91185 23.8559 1.76191 23.4769 1.95595 23.2389C2.14999 23.0097 2.53808 23.1772 2.84679 23.1507C3.2878 23.1066 3.13785 22.7629 3.11139 22.5513C3.08493 22.2163 3.21723 22.137 3.51712 22.1546C3.7288 22.1635 3.84347 22.234 3.817 22.4543C3.79054 22.7188 3.88757 23.0097 3.7288 23.2653Z" fill="#FEF4F2"/>
    </symbol>

</svg>