<svg>
    //logo svg檔
    <symbol id="logo" fill="none" xmlns="http://www.w3.org/2000/svg">
        <path d="M29.7534 32.7705C29.7534 32.7778 29.7461 32.7923 29.7461 32.7996C29.7461 32.785 29.7461 32.7778 29.7534 32.7705Z" fill="#E9E73C"/>
        <path d="M32.5596 30.1582L32.5527 30.172C32.5527 30.1651 32.5596 30.1651 32.5596 30.1582Z" fill="#E9E73C"/>
        <path d="M32.5469 8.94043C32.6506 9.00919 32.6506 9.00919 32.5469 8.94043V8.94043Z" fill="#E9E73C"/>
        <path d="M22.0897 9.12598C21.1747 9.12598 20.4316 9.89604 20.4316 10.838C20.4316 11.7868 21.1747 12.55 22.0897 12.55C22.9978 12.55 23.7408 11.7868 23.7408 10.838C23.7408 9.89604 22.9978 9.12598 22.0897 9.12598Z" fill="#2E8B3B"/>
        <path d="M29.7945 32.7158C29.7807 32.7296 29.7599 32.7502 29.7461 32.7639C29.7668 32.7502 29.7807 32.7296 29.7945 32.7158Z" fill="#E9E73C"/>
        <path d="M38.4494 15.0454C37.8372 15.0661 37.2111 15.0042 36.5988 15.0661C36.0003 15.1211 35.8008 14.9285 35.8145 14.2822C35.842 12.6665 35.7939 11.0439 35.7801 9.4281C35.7664 9.35247 35.7595 9.28371 35.7457 9.20808C35.5875 8.89181 35.2985 9.02244 35.0646 9.01556C34.4523 8.99494 33.84 8.98119 33.2346 9.02244C32.7118 9.05682 32.4847 8.89181 32.526 8.31426C32.5673 7.75046 32.5466 7.18667 32.5329 6.62975C32.526 6.29285 32.4985 5.94219 32.0238 6.07971C31.1913 6.07283 30.3589 6.07283 29.5333 6.06595C29.5402 6.01783 29.5264 5.99032 29.4852 5.97657C29.4989 5.13775 29.4783 4.29894 29.5264 3.467C29.5608 2.83445 29.3132 2.69693 28.7559 2.71069C27.0635 2.74506 25.3642 2.68318 23.6718 2.74506C22.9769 2.76569 22.8118 2.5388 22.8256 1.83749C22.8325 1.29432 23.1145 0.668647 22.6054 0.180483C22.3853 -0.10829 22.0757 0.0360966 21.8143 0.0360966C19.6334 0.0223455 17.4525 0.0292211 15.2717 0.0292211C13.1321 0.0292211 13.1114 0.0292211 13.1252 2.2569C13.1321 2.88945 12.9325 3.01321 12.3822 3.01321C10.6691 3.01321 8.94919 2.91695 7.22926 3.06821C7.09166 3.01321 6.95407 2.99946 6.84399 3.13009C6.55504 3.21948 6.672 3.48075 6.66512 3.66639C6.64448 4.20268 6.61008 4.74585 6.672 5.27527C6.7408 5.95595 6.46561 6.11408 5.88771 6.07283C5.29606 6.0247 4.7044 6.07971 4.11962 6.0522C3.6174 6.03158 3.41789 6.25847 3.43165 6.76726C3.44541 7.27605 3.39725 7.79172 3.43853 8.30051C3.49357 8.89181 3.25966 9.07057 2.74368 9.00869C2.59232 8.98806 2.43409 8.99494 2.28274 9.00869C1.57412 9.07057 0.645361 8.67866 0.211938 9.18745C-0.207725 9.68249 0.136261 10.6313 0.0743438 11.3739C0.0261858 11.9789 0.253217 12.1783 0.824234 12.1646C2.59232 12.1302 4.36041 12.1646 6.1285 12.1371C6.58944 12.1302 6.7752 12.2471 6.75456 12.7627C6.72704 13.3747 6.78208 13.9935 6.80271 14.6123C6.81647 14.681 6.83023 14.7498 6.83711 14.8185C7.05038 15.1279 7.35997 14.9698 7.61452 14.9698C10.2839 14.9835 12.9532 14.9973 15.6225 14.9698C16.1247 14.9629 16.3174 15.0867 16.2761 15.6367C16.2348 16.2555 16.2899 16.8812 16.2555 17.4931C16.2279 18.0019 16.4275 18.1532 16.8884 18.1463C18.1955 18.1188 19.5027 18.1394 20.8098 18.1325C22.8462 18.1325 22.8325 18.1325 22.7843 20.2708C22.7774 20.7728 22.633 20.924 22.172 20.9103C20.8855 20.8828 19.6059 20.9034 18.3194 20.9034C16.0697 20.8965 16.0697 20.8965 16.3174 23.3373C16.3036 23.4748 16.2967 23.6124 16.283 23.7499C15.8977 23.9561 15.478 23.8874 15.0721 23.8874C12.5266 23.8736 9.98115 23.8599 7.44253 23.7842C6.7408 23.7636 6.50689 23.9905 6.5688 24.6987C6.61008 25.1525 6.54816 25.62 6.58256 26.0738C6.63072 26.5895 6.42433 26.7064 5.96339 26.6995C4.42233 26.6789 2.88127 26.6926 1.33333 26.6926C-0.200845 26.6995 0.101863 26.6101 0.0881033 28.0471C0.0743438 29.9035 0.0881033 29.9035 1.84931 29.9035C3.49357 29.8966 3.49357 29.8966 3.49357 31.6568C3.48669 33.4581 3.41101 33.1281 4.86263 33.1419C6.57568 33.1625 6.61696 33.1556 6.55504 34.957C6.52753 35.7683 6.78208 35.9815 7.51821 35.9608C9.21062 35.9127 10.9099 35.9608 12.6023 35.9333C13.1527 35.9196 13.3316 36.1121 13.2903 36.669C13.249 37.1572 13.3178 37.6454 13.2697 38.1266C13.2077 38.7867 13.4073 39.0067 14.0677 38.9998C16.3587 38.9517 18.6427 38.9792 20.9337 38.9792C22.9425 38.9792 22.9769 38.9792 22.9425 36.9097C22.9288 36.2152 23.1765 36.1052 23.7406 36.119C25.4399 36.1465 27.1392 36.1121 28.8316 36.1396C29.382 36.1534 29.5677 35.954 29.5402 35.3971C29.4989 34.5857 29.5058 33.7744 29.4989 32.97C29.5333 32.9562 29.554 32.9287 29.5677 32.8875C29.8223 32.8944 30.0837 32.9219 30.3383 32.9081C31.0262 32.8737 31.8931 33.2038 32.354 32.7706C32.8425 32.3168 32.4641 31.3886 32.5329 30.6735V30.591C32.4916 30.0891 32.7118 29.931 33.1796 29.9585C33.8469 29.986 34.5142 29.931 35.1816 29.9722C35.732 30.0066 35.8833 29.7866 35.8764 29.2297C35.8558 27.552 35.8833 25.8813 35.8902 24.2037C36.7364 24.183 37.5895 24.1487 38.4357 24.1487C38.8072 24.1487 39.0067 24.0661 38.9998 23.6192C38.9929 20.9446 38.9929 18.2701 38.9998 15.5955C38.9998 15.1692 38.8416 15.0317 38.4494 15.0454ZM22.0895 12.5496C21.1745 12.5496 20.4314 11.7864 20.4314 10.8376C20.4314 9.89564 21.1745 9.12558 22.0895 9.12558C22.9976 9.12558 23.7406 9.89564 23.7406 10.8376C23.7406 11.7864 22.9976 12.5496 22.0895 12.5496Z" fill="#58B665"/>
        <path d="M23.7408 10.838C23.7408 11.7868 22.9978 12.55 22.0897 12.55C21.1747 12.55 20.4316 11.7868 20.4316 10.838C20.4316 9.89604 21.1747 9.12598 22.0897 9.12598C22.9978 9.12598 23.7408 9.89604 23.7408 10.838Z" fill="#3D3D3D"/>
        <path d="M5.17969 16.0901C5.18657 16.0351 5.22097 15.9663 5.29664 15.8838C5.22785 15.9113 5.19345 16.0007 5.17969 16.0901Z" fill="#DF4923"/>
        <path d="M5.30247 15.8702C5.29559 15.8771 5.29559 15.8771 5.29559 15.884C5.21992 15.9665 5.18552 16.0352 5.17864 16.0902C5.1236 16.324 4.96537 16.3859 4.73834 16.3928C4.29803 16.3996 4.29115 16.4134 4.27051 16.8534C4.26363 16.9978 4.27739 17.1491 4.071 17.1628C3.86461 17.1835 3.80269 17.0528 3.78205 16.8878C3.74765 16.6403 3.5963 16.5715 3.36239 16.5784C3.156 16.5853 2.94961 16.5715 2.73634 16.5784C2.49555 16.5853 2.37171 16.489 2.36483 16.2415C2.35795 16.0146 2.27539 15.8909 2.0002 15.9184C1.97269 15.9046 1.93829 15.8909 1.91077 15.8702C1.78005 15.7946 1.54614 15.9321 1.49799 15.7602C1.43607 15.5608 1.47047 15.3339 1.47047 15.1208C1.47047 14.9833 1.56678 14.9627 1.66998 14.9627C2.30979 14.9627 2.94961 14.9627 3.58942 14.9558C3.74765 14.9558 3.80269 15.0452 3.80269 15.1827C3.80269 15.3202 3.80957 15.4646 3.80269 15.6021C3.79581 15.8015 3.89901 15.8633 4.09164 15.8633C4.29803 15.8702 4.31867 15.7533 4.31867 15.5952C4.31179 15.5196 4.32555 15.4439 4.31179 15.3683C4.24987 15.0314 4.39435 14.9351 4.73146 14.9558C5.13736 14.9833 5.13736 14.9627 5.13736 15.4027C5.13736 15.664 5.35751 15.8015 5.30247 15.8702Z" fill="#58B665"/>
        <path d="M8.28897 17.7265C8.28897 17.259 8.28897 17.2453 7.79363 17.2521C7.50468 17.259 7.3946 17.1559 7.41524 16.874C7.42212 16.7296 7.47028 16.4752 7.36709 16.4477C7.0575 16.3583 7.03686 16.0833 6.89238 15.8908C6.39016 15.7739 5.88106 15.8564 5.37196 15.8564C5.34445 15.8564 5.32381 15.8633 5.30317 15.8701C5.29629 15.877 5.29629 15.877 5.29629 15.8839C5.22061 15.9664 5.18621 16.0352 5.17933 16.0902C5.1243 16.3239 4.96606 16.3858 4.73903 16.3927C4.29873 16.3996 4.29185 16.4133 4.27121 16.8534C4.26433 16.9977 4.27809 17.149 4.0717 17.1628C3.86531 17.1834 3.80339 17.0527 3.78275 16.8877C3.74835 16.6402 3.597 16.5715 3.36309 16.5783C3.15669 16.5852 2.9503 16.5715 2.73703 16.5783C2.49624 16.5852 2.37241 16.4889 2.36553 16.2414C2.36553 16.0145 2.26921 15.8701 2.0009 15.9183C1.98026 16.0145 1.9665 16.1108 1.94586 16.2002C1.94586 16.207 1.94586 16.207 1.94586 16.2139C1.92522 16.2758 1.8977 16.3377 1.83579 16.3514C1.53308 16.3858 1.55372 16.599 1.55372 16.8121C1.54684 17.2315 1.54684 17.2315 1.11342 17.2384C1.05838 17.2384 1.00334 17.2521 0.948302 17.2384C0.618075 17.1971 0.528639 17.3415 0.535518 17.6509C0.556158 18.5035 0.542398 19.3629 0.542398 20.2155C0.542398 20.8824 0.542398 20.8893 1.21661 20.8962C1.4918 20.903 1.5606 21.0199 1.55372 21.2537C1.54684 21.5769 1.55372 21.9069 1.54684 22.23C1.53996 22.4225 1.60188 22.5532 1.82203 22.5326C2.13849 22.4982 2.24169 22.6563 2.21417 22.9382C2.18665 23.1857 2.31049 23.2614 2.5444 23.2476C2.83335 23.2339 3.12229 23.2339 3.40436 23.2545C3.72083 23.2751 3.89282 23.1857 3.84467 22.842C3.81715 22.6151 3.9341 22.5394 4.16113 22.5463C4.45696 22.5601 4.75967 22.5601 5.0555 22.5463C5.29629 22.5394 5.44764 22.6082 5.427 22.8695C5.41324 23.0688 5.50268 23.1376 5.70219 23.1307C6.0393 23.117 6.38328 23.1239 6.72727 23.1307C6.9199 23.1307 7.01622 23.0551 7.00246 22.8626C7.00246 22.7457 6.98182 22.5807 7.13317 22.5669C7.40148 22.5326 7.38084 22.3469 7.38772 22.1819C7.40148 21.9344 7.38772 21.6869 7.3946 21.4325C7.3946 20.9031 7.3946 20.8893 7.92434 20.903C8.22017 20.9099 8.29585 20.7999 8.28897 20.5249C8.27521 19.5898 8.28897 18.6616 8.28897 17.7265ZM2.90902 18.146C2.90214 18.1666 2.89526 18.201 2.88838 18.201C2.42744 18.2078 2.5444 18.5447 2.51688 18.8129C2.49624 19.0535 2.62695 19.3217 2.42744 19.5417C2.39992 19.5486 2.37928 19.5554 2.35865 19.5623C1.58124 19.7205 1.47804 19.6379 1.47804 18.8816C1.47804 18.8748 1.47116 18.861 1.47804 18.8473C1.4918 18.6066 1.37484 18.311 1.5262 18.1253C1.67755 17.9466 1.98026 18.0772 2.22105 18.0566C2.56504 18.0222 2.44808 17.754 2.42744 17.589C2.4068 17.3278 2.51 17.2659 2.74391 17.2796C2.90902 17.2865 2.99846 17.3415 2.97782 17.5134C2.95718 17.7197 3.03286 17.9466 2.90902 18.146Z" fill="#DF4923"/>
        <path d="M2.90847 18.1459C2.90159 18.1666 2.89471 18.2009 2.88783 18.2009C2.42689 18.2078 2.54384 18.5447 2.51632 18.8129C2.49568 19.0535 2.6264 19.3217 2.42689 19.5417C2.39937 19.5486 2.37873 19.5554 2.35809 19.5623C1.58068 19.7204 1.47748 19.6379 1.47748 18.8816C1.47748 18.8748 1.4706 18.861 1.47748 18.8472C1.49124 18.6066 1.37429 18.311 1.52564 18.1253C1.677 17.9466 1.9797 18.0772 2.22049 18.0566C2.56448 18.0222 2.44752 17.754 2.42689 17.589C2.40625 17.3278 2.50944 17.2659 2.74335 17.2796C2.90847 17.2865 2.9979 17.3415 2.97726 17.5134C2.95662 17.7197 3.0323 17.9466 2.90847 18.1459Z" fill="#FEF4F2"/>
        <path d="M102.33 10.813C104.551 10.813 105.763 13.4194 104.333 15.1365L91.1597 30.9117C89.8247 32.5056 87.863 33.4291 85.7856 33.4291H73.5116C72.1766 33.4291 71.4546 31.8625 72.306 30.8364L74.6422 28.0385H51.1569L47.9555 32.3209C47.4379 33.0187 46.6205 33.4223 45.7555 33.4223C43.4192 33.4223 42.1455 30.6791 43.6508 28.8867L58.1044 11.5792C58.5131 11.0935 59.1125 10.813 59.7391 10.813C61.5032 10.813 62.5045 12.8379 61.4487 14.254L55.1755 22.6546H79.1445L86.923 13.3373C88.2581 11.7434 90.2197 10.8198 92.2972 10.8198H102.33V10.813Z" fill="#58B665"/>
        <path d="M156.991 15.1365L148.32 25.5278C146.985 27.1218 145.023 28.0453 142.946 28.0453H129.31C128.043 28.0453 126.837 28.6063 126.02 29.5845L123.588 32.4919C123.091 33.0871 122.355 33.4291 121.585 33.4291H98.1341C95.9137 33.4291 94.7012 30.8227 96.1316 29.1056L109.305 13.3236C110.64 11.7297 112.601 10.8062 114.679 10.8062H154.995C157.209 10.813 158.421 13.4194 156.991 15.1365ZM133.819 16.2036H116.17C114.904 16.2036 113.698 16.7714 112.881 17.7429L111.832 19.0016C110.973 20.0277 111.702 21.5943 113.037 21.5943H130.685C131.952 21.5943 133.158 21.0265 133.975 20.0551L135.024 18.7964C135.882 17.7702 135.154 16.2036 133.819 16.2036Z" fill="#58B665"/>
        <path d="M206.44 10.813C208.715 10.813 209.962 13.4878 208.497 15.2391C207.987 15.8479 207.237 16.2036 206.44 16.2036H179.406C178.139 16.2036 176.934 16.7714 176.116 17.7429L175.068 19.0016C174.209 20.0277 174.938 21.5943 176.273 21.5943H199.827C201.162 21.5943 201.884 23.1609 201.032 24.187L195.413 30.9117C194.078 32.5056 192.116 33.4291 190.039 33.4291H165.266C164.374 33.4291 163.89 32.3825 164.462 31.6984L166.363 29.4203C166.819 28.8731 166.431 28.0385 165.722 28.0385H154.218C151.998 28.0385 150.785 25.4321 152.216 23.715L160.886 13.3236C162.221 11.7297 164.183 10.8062 166.261 10.8062H206.44V10.813Z" fill="#58B665"/>
        <path d="M249.113 10.813C251.333 10.813 252.546 13.4194 251.116 15.1365L237.942 30.9117C236.607 32.5056 234.646 33.4291 232.568 33.4291H220.294C218.959 33.4291 218.237 31.8626 219.089 30.8364L229.142 18.7964C230 17.7702 229.272 16.2037 227.937 16.2037H218.258C216.909 16.2037 215.635 16.8399 214.825 17.9276L204.077 32.3277C203.559 33.0255 202.742 33.4291 201.877 33.4291C199.54 33.4291 198.267 30.6859 199.772 28.8936L216.228 9.18487C218.217 6.80423 221.153 5.4292 224.245 5.4292H238.058C238.951 5.4292 239.434 6.47586 238.862 7.15996L236.962 9.43799C236.505 9.98526 236.894 10.8199 237.602 10.8199H249.113V10.813Z" fill="#58B665"/>
        <path d="M259.909 16.8197L246.879 32.4307C246.348 33.0669 245.571 33.4295 244.747 33.4295C242.383 33.4295 241.096 30.6521 242.615 28.8324L252.989 16.4024C253.411 15.8962 254.031 15.6089 254.685 15.6089H259.35C259.97 15.6157 260.311 16.3409 259.909 16.8197ZM264.343 11.518C263.921 12.0242 263.301 12.3116 262.647 12.3116H257.981C257.362 12.3116 257.021 11.5796 257.423 11.1007L260.079 7.91967C260.611 7.28347 261.387 6.9209 262.211 6.9209C264.575 6.9209 265.862 9.69832 264.343 11.518Z" fill="#58B665"/>
    </symbol>

    //雙菱形
    <symbol id="decorate" viewBox="0 0 141 181" fill="none" xmlns="http://www.w3.org/2000/svg">
        <path d="M87 147.5C101.912 147.5 114 132.502 114 114C114 132.502 126.088 147.5 141 147.5C126.088 147.5 114 162.498 114 181C114 162.498 101.912 147.5 87 147.5Z" fill="#58C067"/>
        <path d="M54.5 119.975C49.5668 94.0743 32.9372 73.5684 11.6589 68C32.9372 62.4316 49.5668 41.9257 54.5 16.025C59.4332 41.9257 76.0628 62.4316 97.3411 68C76.0628 73.5684 59.4332 94.0743 54.5 119.975Z" stroke="#58C067" stroke-width="3"/>
    </symbol>

    //雙菱形-反
    <symbol  id="decorate-re" viewBox="0 0 45 63" fill="none" xmlns="http://www.w3.org/2000/svg">
        <path d="M12 25.6528C10.7828 20.4844 7.44904 16.38 3.17301 15C7.44904 13.62 10.7828 9.51557 12 4.34722C13.2172 9.51557 16.551 13.62 20.827 15C16.551 16.38 13.2172 20.4844 12 25.6528Z" stroke="#58C067"/>
        <path d="M8 40C18.2173 40 26.5 29.7025 26.5 17C26.5 29.7025 34.7827 40 45 40C34.7827 40 26.5 50.2975 26.5 63C26.5 50.2975 18.2173 40 8 40Z" fill="#58C067"/>
        <path d="M26.5 55.4061C24.5153 48.0849 19.7365 42.2487 13.6116 40C19.7365 37.7513 24.5153 31.9151 26.5 24.5939C28.4847 31.9151 33.2635 37.7513 39.3884 40C33.2635 42.2487 28.4847 48.0849 26.5 55.4061Z" stroke="#3D3D3D" stroke-width="2"/>
    </symbol>

    //單菱形
    <symbol id="single-star" viewBox="0 0 37 46" fill="none" xmlns="http://www.w3.org/2000/svg">
        <path d="M0 23C10.2173 23 18.5 12.7025 18.5 0C18.5 12.7025 26.7827 23 37 23C26.7827 23 18.5 33.2975 18.5 46C18.5 33.2975 10.2173 23 0 23Z" fill="#58C067"/>
        <path d="M18.5 38.4061C16.5153 31.0849 11.7365 25.2487 5.61157 23C11.7365 20.7513 16.5153 14.9151 18.5 7.59395C20.4847 14.9151 25.2635 20.7513 31.3884 23C25.2635 25.2487 20.4847 31.0849 18.5 38.4061Z" stroke="#3D3D3D" stroke-width="2"/>
    </symbol>

    //多角星星
    <symbol id="polygon" viewBox="0 0 162 177" fill="none" xmlns="http://www.w3.org/2000/svg">
        <path d="M129.396 4.1186L132.194 15.3002C132.575 16.8224 134.481 17.333 135.572 16.2052L143.586 7.92099L140.419 19.0038C139.988 20.5126 141.383 21.9075 142.892 21.4764L153.975 18.3093L145.69 26.3238C144.563 27.4148 145.073 29.3204 146.595 29.7014L157.777 32.5L146.595 35.2986C145.073 35.6796 144.563 37.5852 145.69 38.6762L153.975 46.6907L142.892 43.5236C141.383 43.0925 139.988 44.4874 140.419 45.9962L143.586 57.079L135.572 48.7948C134.481 47.667 132.575 48.1776 132.194 49.6998L129.396 60.8814L126.597 49.6998C126.216 48.1776 124.31 47.667 123.219 48.7948L115.205 57.079L118.372 45.9962C118.803 44.4874 117.408 43.0925 115.899 43.5236L104.816 46.6907L113.101 38.6762C114.228 37.5852 113.718 35.6796 112.196 35.2986L101.014 32.5L112.196 29.7014C113.718 29.3204 114.228 27.4148 113.101 26.3238L104.816 18.3093L115.899 21.4764C117.408 21.9075 118.803 20.5126 118.372 19.0038L115.205 7.92099L123.219 16.2052C124.31 17.333 126.216 16.8224 126.597 15.3002L129.396 4.1186Z" stroke="#58C067" stroke-width="2"/>
        <path d="M65 51.1416L72.0045 79.1268C72.3854 80.649 74.291 81.1596 75.382 80.0318L95.4407 59.2981L87.5141 87.0363C87.0829 88.5451 88.4779 89.94 89.9866 89.5089L117.725 81.5822L96.9911 101.641C95.8633 102.732 96.3739 104.638 97.8961 105.018L125.881 112.023L97.8961 119.027C96.3739 119.408 95.8633 121.314 96.9911 122.405L117.725 142.464L89.9866 134.537C88.4779 134.106 87.0829 135.501 87.5141 137.01L95.4407 164.748L75.382 144.014C74.291 142.886 72.3855 143.397 72.0045 144.919L65 172.904L57.9955 144.919C57.6146 143.397 55.709 142.886 54.618 144.014L34.5593 164.748L42.4859 137.01C42.9171 135.501 41.5221 134.106 40.0134 134.537L12.2752 142.464L33.0089 122.405C34.1367 121.314 33.6261 119.408 32.1039 119.027L4.1186 112.023L32.1039 105.018C33.6261 104.638 34.1367 102.732 33.0089 101.641L12.2752 81.5822L40.0134 89.5089C41.5221 89.94 42.9171 88.5451 42.4859 87.0363L34.5593 59.2981L54.618 80.0318C55.709 81.1596 57.6146 80.649 57.9955 79.1268L65 51.1416Z" fill="#58C067" stroke="black" stroke-width="2"/>
    </symbol>

    //header下方的裝飾
    <symbol id="adorn" width="40" height="40" viewBox="0 0 40 40" fill="none" xmlns="http://www.w3.org/2000/svg">
        <rect width="20" height="20" fill="white"/>
        <rect y="20" width="20" height="20" fill="#58C067"/>
        <rect x="20" width="20" height="20" fill="#58C067"/>
        <rect x="20" y="20" width="20" height="20" fill="white"/>
    </symbol>

</svg>