<svg>
    //logo svg檔
    <symbol id="logo" fill="none" xmlns="http://www.w3.org/2000/svg">
        <path d="M29.7534 32.7705C29.7534 32.7778 29.7461 32.7923 29.7461 32.7996C29.7461 32.785 29.7461 32.7778 29.7534 32.7705Z" fill="#E9E73C"/>
        <path d="M32.5596 30.1582L32.5527 30.172C32.5527 30.1651 32.5596 30.1651 32.5596 30.1582Z" fill="#E9E73C"/>
        <path d="M32.5469 8.94043C32.6506 9.00919 32.6506 9.00919 32.5469 8.94043V8.94043Z" fill="#E9E73C"/>
        <path d="M22.0897 9.12598C21.1747 9.12598 20.4316 9.89604 20.4316 10.838C20.4316 11.7868 21.1747 12.55 22.0897 12.55C22.9978 12.55 23.7408 11.7868 23.7408 10.838C23.7408 9.89604 22.9978 9.12598 22.0897 9.12598Z" fill="#2E8B3B"/>
        <path d="M29.7945 32.7158C29.7807 32.7296 29.7599 32.7502 29.7461 32.7639C29.7668 32.7502 29.7807 32.7296 29.7945 32.7158Z" fill="#E9E73C"/>
        <path d="M38.4494 15.0454C37.8372 15.0661 37.2111 15.0042 36.5988 15.0661C36.0003 15.1211 35.8008 14.9285 35.8145 14.2822C35.842 12.6665 35.7939 11.0439 35.7801 9.4281C35.7664 9.35247 35.7595 9.28371 35.7457 9.20808C35.5875 8.89181 35.2985 9.02244 35.0646 9.01556C34.4523 8.99494 33.84 8.98119 33.2346 9.02244C32.7118 9.05682 32.4847 8.89181 32.526 8.31426C32.5673 7.75046 32.5466 7.18667 32.5329 6.62975C32.526 6.29285 32.4985 5.94219 32.0238 6.07971C31.1913 6.07283 30.3589 6.07283 29.5333 6.06595C29.5402 6.01783 29.5264 5.99032 29.4852 5.97657C29.4989 5.13775 29.4783 4.29894 29.5264 3.467C29.5608 2.83445 29.3132 2.69693 28.7559 2.71069C27.0635 2.74506 25.3642 2.68318 23.6718 2.74506C22.9769 2.76569 22.8118 2.5388 22.8256 1.83749C22.8325 1.29432 23.1145 0.668647 22.6054 0.180483C22.3853 -0.10829 22.0757 0.0360966 21.8143 0.0360966C19.6334 0.0223455 17.4525 0.0292211 15.2717 0.0292211C13.1321 0.0292211 13.1114 0.0292211 13.1252 2.2569C13.1321 2.88945 12.9325 3.01321 12.3822 3.01321C10.6691 3.01321 8.94919 2.91695 7.22926 3.06821C7.09166 3.01321 6.95407 2.99946 6.84399 3.13009C6.55504 3.21948 6.672 3.48075 6.66512 3.66639C6.64448 4.20268 6.61008 4.74585 6.672 5.27527C6.7408 5.95595 6.46561 6.11408 5.88771 6.07283C5.29606 6.0247 4.7044 6.07971 4.11962 6.0522C3.6174 6.03158 3.41789 6.25847 3.43165 6.76726C3.44541 7.27605 3.39725 7.79172 3.43853 8.30051C3.49357 8.89181 3.25966 9.07057 2.74368 9.00869C2.59232 8.98806 2.43409 8.99494 2.28274 9.00869C1.57412 9.07057 0.645361 8.67866 0.211938 9.18745C-0.207725 9.68249 0.136261 10.6313 0.0743438 11.3739C0.0261858 11.9789 0.253217 12.1783 0.824234 12.1646C2.59232 12.1302 4.36041 12.1646 6.1285 12.1371C6.58944 12.1302 6.7752 12.2471 6.75456 12.7627C6.72704 13.3747 6.78208 13.9935 6.80271 14.6123C6.81647 14.681 6.83023 14.7498 6.83711 14.8185C7.05038 15.1279 7.35997 14.9698 7.61452 14.9698C10.2839 14.9835 12.9532 14.9973 15.6225 14.9698C16.1247 14.9629 16.3174 15.0867 16.2761 15.6367C16.2348 16.2555 16.2899 16.8812 16.2555 17.4931C16.2279 18.0019 16.4275 18.1532 16.8884 18.1463C18.1955 18.1188 19.5027 18.1394 20.8098 18.1325C22.8462 18.1325 22.8325 18.1325 22.7843 20.2708C22.7774 20.7728 22.633 20.924 22.172 20.9103C20.8855 20.8828 19.6059 20.9034 18.3194 20.9034C16.0697 20.8965 16.0697 20.8965 16.3174 23.3373C16.3036 23.4748 16.2967 23.6124 16.283 23.7499C15.8977 23.9561 15.478 23.8874 15.0721 23.8874C12.5266 23.8736 9.98115 23.8599 7.44253 23.7842C6.7408 23.7636 6.50689 23.9905 6.5688 24.6987C6.61008 25.1525 6.54816 25.62 6.58256 26.0738C6.63072 26.5895 6.42433 26.7064 5.96339 26.6995C4.42233 26.6789 2.88127 26.6926 1.33333 26.6926C-0.200845 26.6995 0.101863 26.6101 0.0881033 28.0471C0.0743438 29.9035 0.0881033 29.9035 1.84931 29.9035C3.49357 29.8966 3.49357 29.8966 3.49357 31.6568C3.48669 33.4581 3.41101 33.1281 4.86263 33.1419C6.57568 33.1625 6.61696 33.1556 6.55504 34.957C6.52753 35.7683 6.78208 35.9815 7.51821 35.9608C9.21062 35.9127 10.9099 35.9608 12.6023 35.9333C13.1527 35.9196 13.3316 36.1121 13.2903 36.669C13.249 37.1572 13.3178 37.6454 13.2697 38.1266C13.2077 38.7867 13.4073 39.0067 14.0677 38.9998C16.3587 38.9517 18.6427 38.9792 20.9337 38.9792C22.9425 38.9792 22.9769 38.9792 22.9425 36.9097C22.9288 36.2152 23.1765 36.1052 23.7406 36.119C25.4399 36.1465 27.1392 36.1121 28.8316 36.1396C29.382 36.1534 29.5677 35.954 29.5402 35.3971C29.4989 34.5857 29.5058 33.7744 29.4989 32.97C29.5333 32.9562 29.554 32.9287 29.5677 32.8875C29.8223 32.8944 30.0837 32.9219 30.3383 32.9081C31.0262 32.8737 31.8931 33.2038 32.354 32.7706C32.8425 32.3168 32.4641 31.3886 32.5329 30.6735V30.591C32.4916 30.0891 32.7118 29.931 33.1796 29.9585C33.8469 29.986 34.5142 29.931 35.1816 29.9722C35.732 30.0066 35.8833 29.7866 35.8764 29.2297C35.8558 27.552 35.8833 25.8813 35.8902 24.2037C36.7364 24.183 37.5895 24.1487 38.4357 24.1487C38.8072 24.1487 39.0067 24.0661 38.9998 23.6192C38.9929 20.9446 38.9929 18.2701 38.9998 15.5955C38.9998 15.1692 38.8416 15.0317 38.4494 15.0454ZM22.0895 12.5496C21.1745 12.5496 20.4314 11.7864 20.4314 10.8376C20.4314 9.89564 21.1745 9.12558 22.0895 9.12558C22.9976 9.12558 23.7406 9.89564 23.7406 10.8376C23.7406 11.7864 22.9976 12.5496 22.0895 12.5496Z" fill="#58B665"/>
        <path d="M23.7408 10.838C23.7408 11.7868 22.9978 12.55 22.0897 12.55C21.1747 12.55 20.4316 11.7868 20.4316 10.838C20.4316 9.89604 21.1747 9.12598 22.0897 9.12598C22.9978 9.12598 23.7408 9.89604 23.7408 10.838Z" fill="#3D3D3D"/>
        <path d="M5.17969 16.0901C5.18657 16.0351 5.22097 15.9663 5.29664 15.8838C5.22785 15.9113 5.19345 16.0007 5.17969 16.0901Z" fill="#DF4923"/>
        <path d="M5.30247 15.8702C5.29559 15.8771 5.29559 15.8771 5.29559 15.884C5.21992 15.9665 5.18552 16.0352 5.17864 16.0902C5.1236 16.324 4.96537 16.3859 4.73834 16.3928C4.29803 16.3996 4.29115 16.4134 4.27051 16.8534C4.26363 16.9978 4.27739 17.1491 4.071 17.1628C3.86461 17.1835 3.80269 17.0528 3.78205 16.8878C3.74765 16.6403 3.5963 16.5715 3.36239 16.5784C3.156 16.5853 2.94961 16.5715 2.73634 16.5784C2.49555 16.5853 2.37171 16.489 2.36483 16.2415C2.35795 16.0146 2.27539 15.8909 2.0002 15.9184C1.97269 15.9046 1.93829 15.8909 1.91077 15.8702C1.78005 15.7946 1.54614 15.9321 1.49799 15.7602C1.43607 15.5608 1.47047 15.3339 1.47047 15.1208C1.47047 14.9833 1.56678 14.9627 1.66998 14.9627C2.30979 14.9627 2.94961 14.9627 3.58942 14.9558C3.74765 14.9558 3.80269 15.0452 3.80269 15.1827C3.80269 15.3202 3.80957 15.4646 3.80269 15.6021C3.79581 15.8015 3.89901 15.8633 4.09164 15.8633C4.29803 15.8702 4.31867 15.7533 4.31867 15.5952C4.31179 15.5196 4.32555 15.4439 4.31179 15.3683C4.24987 15.0314 4.39435 14.9351 4.73146 14.9558C5.13736 14.9833 5.13736 14.9627 5.13736 15.4027C5.13736 15.664 5.35751 15.8015 5.30247 15.8702Z" fill="#58B665"/>
        <path d="M8.28897 17.7265C8.28897 17.259 8.28897 17.2453 7.79363 17.2521C7.50468 17.259 7.3946 17.1559 7.41524 16.874C7.42212 16.7296 7.47028 16.4752 7.36709 16.4477C7.0575 16.3583 7.03686 16.0833 6.89238 15.8908C6.39016 15.7739 5.88106 15.8564 5.37196 15.8564C5.34445 15.8564 5.32381 15.8633 5.30317 15.8701C5.29629 15.877 5.29629 15.877 5.29629 15.8839C5.22061 15.9664 5.18621 16.0352 5.17933 16.0902C5.1243 16.3239 4.96606 16.3858 4.73903 16.3927C4.29873 16.3996 4.29185 16.4133 4.27121 16.8534C4.26433 16.9977 4.27809 17.149 4.0717 17.1628C3.86531 17.1834 3.80339 17.0527 3.78275 16.8877C3.74835 16.6402 3.597 16.5715 3.36309 16.5783C3.15669 16.5852 2.9503 16.5715 2.73703 16.5783C2.49624 16.5852 2.37241 16.4889 2.36553 16.2414C2.36553 16.0145 2.26921 15.8701 2.0009 15.9183C1.98026 16.0145 1.9665 16.1108 1.94586 16.2002C1.94586 16.207 1.94586 16.207 1.94586 16.2139C1.92522 16.2758 1.8977 16.3377 1.83579 16.3514C1.53308 16.3858 1.55372 16.599 1.55372 16.8121C1.54684 17.2315 1.54684 17.2315 1.11342 17.2384C1.05838 17.2384 1.00334 17.2521 0.948302 17.2384C0.618075 17.1971 0.528639 17.3415 0.535518 17.6509C0.556158 18.5035 0.542398 19.3629 0.542398 20.2155C0.542398 20.8824 0.542398 20.8893 1.21661 20.8962C1.4918 20.903 1.5606 21.0199 1.55372 21.2537C1.54684 21.5769 1.55372 21.9069 1.54684 22.23C1.53996 22.4225 1.60188 22.5532 1.82203 22.5326C2.13849 22.4982 2.24169 22.6563 2.21417 22.9382C2.18665 23.1857 2.31049 23.2614 2.5444 23.2476C2.83335 23.2339 3.12229 23.2339 3.40436 23.2545C3.72083 23.2751 3.89282 23.1857 3.84467 22.842C3.81715 22.6151 3.9341 22.5394 4.16113 22.5463C4.45696 22.5601 4.75967 22.5601 5.0555 22.5463C5.29629 22.5394 5.44764 22.6082 5.427 22.8695C5.41324 23.0688 5.50268 23.1376 5.70219 23.1307C6.0393 23.117 6.38328 23.1239 6.72727 23.1307C6.9199 23.1307 7.01622 23.0551 7.00246 22.8626C7.00246 22.7457 6.98182 22.5807 7.13317 22.5669C7.40148 22.5326 7.38084 22.3469 7.38772 22.1819C7.40148 21.9344 7.38772 21.6869 7.3946 21.4325C7.3946 20.9031 7.3946 20.8893 7.92434 20.903C8.22017 20.9099 8.29585 20.7999 8.28897 20.5249C8.27521 19.5898 8.28897 18.6616 8.28897 17.7265ZM2.90902 18.146C2.90214 18.1666 2.89526 18.201 2.88838 18.201C2.42744 18.2078 2.5444 18.5447 2.51688 18.8129C2.49624 19.0535 2.62695 19.3217 2.42744 19.5417C2.39992 19.5486 2.37928 19.5554 2.35865 19.5623C1.58124 19.7205 1.47804 19.6379 1.47804 18.8816C1.47804 18.8748 1.47116 18.861 1.47804 18.8473C1.4918 18.6066 1.37484 18.311 1.5262 18.1253C1.67755 17.9466 1.98026 18.0772 2.22105 18.0566C2.56504 18.0222 2.44808 17.754 2.42744 17.589C2.4068 17.3278 2.51 17.2659 2.74391 17.2796C2.90902 17.2865 2.99846 17.3415 2.97782 17.5134C2.95718 17.7197 3.03286 17.9466 2.90902 18.146Z" fill="#DF4923"/>
        <path d="M2.90847 18.1459C2.90159 18.1666 2.89471 18.2009 2.88783 18.2009C2.42689 18.2078 2.54384 18.5447 2.51632 18.8129C2.49568 19.0535 2.6264 19.3217 2.42689 19.5417C2.39937 19.5486 2.37873 19.5554 2.35809 19.5623C1.58068 19.7204 1.47748 19.6379 1.47748 18.8816C1.47748 18.8748 1.4706 18.861 1.47748 18.8472C1.49124 18.6066 1.37429 18.311 1.52564 18.1253C1.677 17.9466 1.9797 18.0772 2.22049 18.0566C2.56448 18.0222 2.44752 17.754 2.42689 17.589C2.40625 17.3278 2.50944 17.2659 2.74335 17.2796C2.90847 17.2865 2.9979 17.3415 2.97726 17.5134C2.95662 17.7197 3.0323 17.9466 2.90847 18.1459Z" fill="#FEF4F2"/>
        <path d="M102.33 10.813C104.551 10.813 105.763 13.4194 104.333 15.1365L91.1597 30.9117C89.8247 32.5056 87.863 33.4291 85.7856 33.4291H73.5116C72.1766 33.4291 71.4546 31.8625 72.306 30.8364L74.6422 28.0385H51.1569L47.9555 32.3209C47.4379 33.0187 46.6205 33.4223 45.7555 33.4223C43.4192 33.4223 42.1455 30.6791 43.6508 28.8867L58.1044 11.5792C58.5131 11.0935 59.1125 10.813 59.7391 10.813C61.5032 10.813 62.5045 12.8379 61.4487 14.254L55.1755 22.6546H79.1445L86.923 13.3373C88.2581 11.7434 90.2197 10.8198 92.2972 10.8198H102.33V10.813Z" fill="#58B665"/>
        <path d="M156.991 15.1365L148.32 25.5278C146.985 27.1218 145.023 28.0453 142.946 28.0453H129.31C128.043 28.0453 126.837 28.6063 126.02 29.5845L123.588 32.4919C123.091 33.0871 122.355 33.4291 121.585 33.4291H98.1341C95.9137 33.4291 94.7012 30.8227 96.1316 29.1056L109.305 13.3236C110.64 11.7297 112.601 10.8062 114.679 10.8062H154.995C157.209 10.813 158.421 13.4194 156.991 15.1365ZM133.819 16.2036H116.17C114.904 16.2036 113.698 16.7714 112.881 17.7429L111.832 19.0016C110.973 20.0277 111.702 21.5943 113.037 21.5943H130.685C131.952 21.5943 133.158 21.0265 133.975 20.0551L135.024 18.7964C135.882 17.7702 135.154 16.2036 133.819 16.2036Z" fill="#58B665"/>
        <path d="M206.44 10.813C208.715 10.813 209.962 13.4878 208.497 15.2391C207.987 15.8479 207.237 16.2036 206.44 16.2036H179.406C178.139 16.2036 176.934 16.7714 176.116 17.7429L175.068 19.0016C174.209 20.0277 174.938 21.5943 176.273 21.5943H199.827C201.162 21.5943 201.884 23.1609 201.032 24.187L195.413 30.9117C194.078 32.5056 192.116 33.4291 190.039 33.4291H165.266C164.374 33.4291 163.89 32.3825 164.462 31.6984L166.363 29.4203C166.819 28.8731 166.431 28.0385 165.722 28.0385H154.218C151.998 28.0385 150.785 25.4321 152.216 23.715L160.886 13.3236C162.221 11.7297 164.183 10.8062 166.261 10.8062H206.44V10.813Z" fill="#58B665"/>
        <path d="M249.113 10.813C251.333 10.813 252.546 13.4194 251.116 15.1365L237.942 30.9117C236.607 32.5056 234.646 33.4291 232.568 33.4291H220.294C218.959 33.4291 218.237 31.8626 219.089 30.8364L229.142 18.7964C230 17.7702 229.272 16.2037 227.937 16.2037H218.258C216.909 16.2037 215.635 16.8399 214.825 17.9276L204.077 32.3277C203.559 33.0255 202.742 33.4291 201.877 33.4291C199.54 33.4291 198.267 30.6859 199.772 28.8936L216.228 9.18487C218.217 6.80423 221.153 5.4292 224.245 5.4292H238.058C238.951 5.4292 239.434 6.47586 238.862 7.15996L236.962 9.43799C236.505 9.98526 236.894 10.8199 237.602 10.8199H249.113V10.813Z" fill="#58B665"/>
        <path d="M259.909 16.8197L246.879 32.4307C246.348 33.0669 245.571 33.4295 244.747 33.4295C242.383 33.4295 241.096 30.6521 242.615 28.8324L252.989 16.4024C253.411 15.8962 254.031 15.6089 254.685 15.6089H259.35C259.97 15.6157 260.311 16.3409 259.909 16.8197ZM264.343 11.518C263.921 12.0242 263.301 12.3116 262.647 12.3116H257.981C257.362 12.3116 257.021 11.5796 257.423 11.1007L260.079 7.91967C260.611 7.28347 261.387 6.9209 262.211 6.9209C264.575 6.9209 265.862 9.69832 264.343 11.518Z" fill="#58B665"/>
    </symbol>

    //雙菱形
    <symbol id="decorate" viewBox="0 0 141 181" fill="none" xmlns="http://www.w3.org/2000/svg">
        <path d="M87 147.5C101.912 147.5 114 132.502 114 114C114 132.502 126.088 147.5 141 147.5C126.088 147.5 114 162.498 114 181C114 162.498 101.912 147.5 87 147.5Z" fill="#58C067"/>
        <path d="M54.5 119.975C49.5668 94.0743 32.9372 73.5684 11.6589 68C32.9372 62.4316 49.5668 41.9257 54.5 16.025C59.4332 41.9257 76.0628 62.4316 97.3411 68C76.0628 73.5684 59.4332 94.0743 54.5 119.975Z" stroke="#58C067" stroke-width="3"/>
    </symbol>

    //雙菱形-反
    <symbol  id="decorate-re" viewBox="0 0 45 63" fill="none" xmlns="http://www.w3.org/2000/svg">
        <path d="M12 25.6528C10.7828 20.4844 7.44904 16.38 3.17301 15C7.44904 13.62 10.7828 9.51557 12 4.34722C13.2172 9.51557 16.551 13.62 20.827 15C16.551 16.38 13.2172 20.4844 12 25.6528Z" stroke="#58C067"/>
        <path d="M8 40C18.2173 40 26.5 29.7025 26.5 17C26.5 29.7025 34.7827 40 45 40C34.7827 40 26.5 50.2975 26.5 63C26.5 50.2975 18.2173 40 8 40Z" fill="#58C067"/>
        <path d="M26.5 55.4061C24.5153 48.0849 19.7365 42.2487 13.6116 40C19.7365 37.7513 24.5153 31.9151 26.5 24.5939C28.4847 31.9151 33.2635 37.7513 39.3884 40C33.2635 42.2487 28.4847 48.0849 26.5 55.4061Z" stroke="#3D3D3D" stroke-width="2"/>
    </symbol>

    //單菱形
    <symbol id="single-star" viewBox="0 0 37 46" fill="none" xmlns="http://www.w3.org/2000/svg">
        <path d="M0 23C10.2173 23 18.5 12.7025 18.5 0C18.5 12.7025 26.7827 23 37 23C26.7827 23 18.5 33.2975 18.5 46C18.5 33.2975 10.2173 23 0 23Z" fill="#58C067"/>
        <path d="M18.5 38.4061C16.5153 31.0849 11.7365 25.2487 5.61157 23C11.7365 20.7513 16.5153 14.9151 18.5 7.59395C20.4847 14.9151 25.2635 20.7513 31.3884 23C25.2635 25.2487 20.4847 31.0849 18.5 38.4061Z" stroke="#3D3D3D" stroke-width="2"/>
    </symbol>

    //多角星星
    <symbol id="polygon" viewBox="0 0 162 177" fill="none" xmlns="http://www.w3.org/2000/svg">
        <path d="M129.396 4.1186L132.194 15.3002C132.575 16.8224 134.481 17.333 135.572 16.2052L143.586 7.92099L140.419 19.0038C139.988 20.5126 141.383 21.9075 142.892 21.4764L153.975 18.3093L145.69 26.3238C144.563 27.4148 145.073 29.3204 146.595 29.7014L157.777 32.5L146.595 35.2986C145.073 35.6796 144.563 37.5852 145.69 38.6762L153.975 46.6907L142.892 43.5236C141.383 43.0925 139.988 44.4874 140.419 45.9962L143.586 57.079L135.572 48.7948C134.481 47.667 132.575 48.1776 132.194 49.6998L129.396 60.8814L126.597 49.6998C126.216 48.1776 124.31 47.667 123.219 48.7948L115.205 57.079L118.372 45.9962C118.803 44.4874 117.408 43.0925 115.899 43.5236L104.816 46.6907L113.101 38.6762C114.228 37.5852 113.718 35.6796 112.196 35.2986L101.014 32.5L112.196 29.7014C113.718 29.3204 114.228 27.4148 113.101 26.3238L104.816 18.3093L115.899 21.4764C117.408 21.9075 118.803 20.5126 118.372 19.0038L115.205 7.92099L123.219 16.2052C124.31 17.333 126.216 16.8224 126.597 15.3002L129.396 4.1186Z" stroke="#58C067" stroke-width="2"/>
        <path d="M65 51.1416L72.0045 79.1268C72.3854 80.649 74.291 81.1596 75.382 80.0318L95.4407 59.2981L87.5141 87.0363C87.0829 88.5451 88.4779 89.94 89.9866 89.5089L117.725 81.5822L96.9911 101.641C95.8633 102.732 96.3739 104.638 97.8961 105.018L125.881 112.023L97.8961 119.027C96.3739 119.408 95.8633 121.314 96.9911 122.405L117.725 142.464L89.9866 134.537C88.4779 134.106 87.0829 135.501 87.5141 137.01L95.4407 164.748L75.382 144.014C74.291 142.886 72.3855 143.397 72.0045 144.919L65 172.904L57.9955 144.919C57.6146 143.397 55.709 142.886 54.618 144.014L34.5593 164.748L42.4859 137.01C42.9171 135.501 41.5221 134.106 40.0134 134.537L12.2752 142.464L33.0089 122.405C34.1367 121.314 33.6261 119.408 32.1039 119.027L4.1186 112.023L32.1039 105.018C33.6261 104.638 34.1367 102.732 33.0089 101.641L12.2752 81.5822L40.0134 89.5089C41.5221 89.94 42.9171 88.5451 42.4859 87.0363L34.5593 59.2981L54.618 80.0318C55.709 81.1596 57.6146 80.649 57.9955 79.1268L65 51.1416Z" fill="#58C067" stroke="black" stroke-width="2"/>
    </symbol>

    //header下方的裝飾
    <symbol id="adorn" width="40" height="40" viewBox="0 0 40 40" fill="none" xmlns="http://www.w3.org/2000/svg">
        <rect width="20" height="20" fill="white"/>
        <rect y="20" width="20" height="20" fill="#58C067"/>
        <rect x="20" width="20" height="20" fill="#58C067"/>
        <rect x="20" y="20" width="20" height="20" fill="white"/>
    </symbol>

    //mobile-logo
    <symbol id="mobile-logo" viewBox="0 0 92 39" fill="none" xmlns="http://www.w3.org/2000/svg">
        <path d="M24.5873 28.5C25.5075 28.5 26.0099 29.7101 25.4172 30.5073L19.9581 37.8313C19.4048 38.5713 18.5919 39 17.7309 39H12.6444C12.0912 39 11.792 38.2727 12.1448 37.7963L13.113 36.4973H3.38032L2.05365 38.4855C1.83912 38.8095 1.5004 38.9969 1.14192 38.9969C0.173729 38.9969 -0.354117 37.7233 0.2697 36.8911L6.25948 28.8557C6.42884 28.6302 6.67724 28.5 6.93693 28.5C7.66801 28.5 8.08295 29.4401 7.64543 30.0976L5.04572 33.9978H14.9788L18.2023 29.672C18.7556 28.9319 19.5685 28.5032 20.4295 28.5032H24.5873V28.5Z" fill="#58B665"/>
        <path d="M47.2396 30.5065L43.6463 35.331C43.0931 36.071 42.2802 36.4998 41.4192 36.4998H35.7682C35.2432 36.4998 34.7435 36.7602 34.4048 37.2144L33.3971 38.5642C33.191 38.8405 32.8862 38.9993 32.5672 38.9993H22.8487C21.9285 38.9993 21.426 37.7892 22.0188 36.992L27.4779 29.6649C28.0311 28.9249 28.8441 28.4961 29.705 28.4961H46.4126C47.33 28.4993 47.8324 29.7093 47.2396 30.5065ZM37.6368 31.002H30.3232C29.7982 31.002 29.2985 31.2656 28.9598 31.7166L28.5251 32.301C28.1695 32.7774 28.4715 33.5047 29.0247 33.5047H36.3384C36.8634 33.5047 37.363 33.2411 37.7017 32.7901L38.1364 32.2057C38.4921 31.7293 38.1901 31.002 37.6368 31.002Z" fill="#58B665"/>
        <path d="M67.7325 28.4993C68.6753 28.4993 69.1919 29.7411 68.585 30.5542C68.3733 30.8368 68.0628 31.002 67.7325 31.002H56.5292C56.0042 31.002 55.5046 31.2656 55.1658 31.7166L54.7311 32.301C54.3755 32.7774 54.6775 33.5047 55.2308 33.5047H64.9917C65.5449 33.5047 65.8441 34.2321 65.4913 34.7085L63.1626 37.8305C62.6093 38.5705 61.7964 38.9993 60.9354 38.9993H50.6693C50.2995 38.9993 50.0991 38.5134 50.3362 38.1958L51.1237 37.1381C51.3128 36.8841 51.152 36.4966 50.8584 36.4966H46.0908C45.1706 36.4966 44.6682 35.2865 45.261 34.4893L48.8543 29.6649C49.4075 28.9249 50.2205 28.4961 51.0814 28.4961H67.7325V28.4993Z" fill="#58B665"/>
        <path d="M85.4166 28.4996C86.3368 28.4996 86.8392 29.7096 86.2465 30.5068L80.7873 37.8308C80.2341 38.5708 79.4212 38.9996 78.5602 38.9996H73.4737C72.9205 38.9996 72.6213 38.2723 72.9741 37.7959L77.1404 32.206C77.4961 31.7296 77.194 31.0023 76.6408 31.0023H72.6297C72.0708 31.0023 71.543 31.2977 71.2071 31.8027L66.7529 38.4883C66.5383 38.8122 66.1996 38.9996 65.8411 38.9996C64.8729 38.9996 64.3451 37.726 64.9689 36.8939L71.7886 27.7437C72.6128 26.6384 73.8294 26 75.1109 26H80.8353C81.2051 26 81.4055 26.4859 81.1684 26.8035L80.3809 27.8612C80.1918 28.1153 80.3527 28.5027 80.6462 28.5027H85.4166V28.4996Z" fill="#58B665"/>
        <path d="M89.8909 31.2876L84.491 38.5354C84.2709 38.8308 83.9491 38.9991 83.6075 38.9991C82.6281 38.9991 82.0946 37.7096 82.724 36.8648L87.023 31.0939C87.198 30.8589 87.4549 30.7255 87.7259 30.7255H89.6594C89.9163 30.7287 90.0574 31.0653 89.8909 31.2876ZM91.7285 28.8262C91.5535 29.0612 91.2966 29.1946 91.0256 29.1946H89.0921C88.8352 29.1946 88.6941 28.8548 88.8606 28.6325L89.9614 27.1556C90.1816 26.8602 90.5034 26.6919 90.845 26.6919C91.8244 26.6919 92.3579 27.9814 91.7285 28.8262Z" fill="#58B665"/>
        <path d="M52.31 20.1665C52.31 20.1709 52.3057 20.1797 52.3057 20.184C52.3057 20.1753 52.3057 20.1709 52.31 20.1665Z" fill="#58C067"/>
        <path d="M54.0374 18.5591L54.0332 18.5674C54.0332 18.5632 54.0374 18.5632 54.0374 18.5591Z" fill="#58C067"/>
        <path d="M54.0283 5.50146C54.0921 5.54378 54.0921 5.54378 54.0283 5.50146V5.50146Z" fill="#58C067"/>
        <path d="M47.5936 5.61572C47.0305 5.61572 46.5732 6.08961 46.5732 6.66927C46.5732 7.25316 47.0305 7.72281 47.5936 7.72281C48.1524 7.72281 48.6096 7.25316 48.6096 6.66927C48.6096 6.08961 48.1524 5.61572 47.5936 5.61572Z" fill="#2E8B3B"/>
        <path d="M52.3354 20.1328C52.3269 20.1413 52.3142 20.154 52.3057 20.1624C52.3184 20.154 52.3269 20.1413 52.3354 20.1328Z" fill="#58C067"/>
        <path d="M57.6612 9.25872C57.2844 9.27142 56.8991 9.23334 56.5223 9.27142C56.154 9.30526 56.0312 9.18679 56.0397 8.78907C56.0566 7.79476 56.027 6.79622 56.0185 5.80191C56.0101 5.75536 56.0058 5.71305 55.9974 5.66651C55.9 5.47188 55.7222 5.55227 55.5782 5.54804C55.2014 5.53535 54.8246 5.52688 54.4521 5.55227C54.1303 5.57343 53.9906 5.47188 54.016 5.11647C54.0414 4.76952 54.0287 4.42257 54.0202 4.07985C54.016 3.87252 53.9991 3.65674 53.7069 3.74136C53.1947 3.73713 52.6824 3.73713 52.1744 3.73289C52.1786 3.70328 52.1701 3.68635 52.1447 3.67789C52.1532 3.1617 52.1405 2.6455 52.1701 2.13354C52.1913 1.74427 52.0389 1.65965 51.6959 1.66811C50.6545 1.68927 49.6087 1.65119 48.5673 1.68927C48.1397 1.70196 48.0381 1.56234 48.0465 1.13076C48.0508 0.796506 48.2243 0.411475 47.911 0.111067C47.7756 -0.06664 47.585 0.0222133 47.4242 0.0222133C46.0821 0.0137511 44.74 0.0179822 43.3979 0.0179822C42.0813 0.0179822 42.0686 0.0179822 42.077 1.38886C42.0813 1.77812 41.9585 1.85428 41.6198 1.85428C40.5656 1.85428 39.5072 1.79505 38.4488 1.88813C38.3641 1.85428 38.2794 1.84582 38.2117 1.92621C38.0339 1.98122 38.1058 2.142 38.1016 2.25624C38.0889 2.58626 38.0677 2.92052 38.1058 3.24632C38.1482 3.6652 37.9788 3.76251 37.6232 3.73713C37.2591 3.70751 36.895 3.74136 36.5352 3.72443C36.2261 3.71174 36.1033 3.85137 36.1118 4.16447C36.1203 4.47757 36.0906 4.7949 36.116 5.10801C36.1499 5.47188 36.0059 5.58189 35.6884 5.54381C35.5953 5.53112 35.4979 5.53535 35.4048 5.54381C34.9687 5.58189 34.3971 5.34072 34.1304 5.65382C33.8722 5.95846 34.0839 6.54235 34.0458 6.99931C34.0161 7.37165 34.1558 7.49435 34.5072 7.48589C35.5953 7.46473 36.6833 7.48589 37.7714 7.46896C38.055 7.46473 38.1694 7.53666 38.1567 7.85399C38.1397 8.23056 38.1736 8.61136 38.1863 8.99216C38.1948 9.03447 38.2032 9.07679 38.2075 9.1191C38.3387 9.3095 38.5292 9.21218 38.6859 9.21218C40.3285 9.22064 41.9712 9.2291 43.6139 9.21218C43.9229 9.20795 44.0415 9.28411 44.0161 9.6226C43.9907 10.0034 44.0245 10.3884 44.0034 10.765C43.9864 11.0781 44.1092 11.1712 44.3929 11.167C45.1973 11.15 46.0017 11.1627 46.8061 11.1585C48.0592 11.1585 48.0508 11.1585 48.0211 12.4744C48.0169 12.7832 47.928 12.8763 47.6443 12.8679C46.8526 12.8509 46.0652 12.8636 45.2735 12.8636C43.889 12.8594 43.889 12.8594 44.0415 14.3614C44.033 14.4461 44.0288 14.5307 44.0203 14.6153C43.7832 14.7422 43.525 14.6999 43.2752 14.6999C41.7087 14.6915 40.1422 14.683 38.58 14.6365C38.1482 14.6238 38.0042 14.7634 38.0423 15.1992C38.0677 15.4784 38.0296 15.7662 38.0508 16.0454C38.0804 16.3628 37.9534 16.4347 37.6698 16.4305C36.7214 16.4178 35.7731 16.4262 34.8205 16.4262C33.8764 16.4305 34.0627 16.3754 34.0542 17.2597C34.0458 18.4021 34.0542 18.4021 35.138 18.4021C36.1499 18.3979 36.1499 18.3979 36.1499 19.4811C36.1457 20.5896 36.0991 20.3865 36.9924 20.395C38.0466 20.4077 38.072 20.4035 38.0339 21.512C38.0169 22.0113 38.1736 22.1424 38.6266 22.1298C39.6681 22.1001 40.7138 22.1298 41.7553 22.1128C42.094 22.1044 42.204 22.2228 42.1786 22.5656C42.1532 22.866 42.1956 23.1664 42.1659 23.4626C42.1278 23.8687 42.2506 24.0041 42.657 23.9999C44.0669 23.9703 45.4724 23.9872 46.8823 23.9872C48.1185 23.9872 48.1397 23.9872 48.1185 22.7136C48.11 22.2863 48.2624 22.2186 48.6096 22.2271C49.6553 22.244 50.701 22.2228 51.7425 22.2398C52.0812 22.2482 52.1955 22.1255 52.1786 21.7828C52.1532 21.2835 52.1574 20.7843 52.1532 20.2892C52.1744 20.2808 52.1871 20.2638 52.1955 20.2384C52.3522 20.2427 52.513 20.2596 52.6697 20.2511C53.0931 20.23 53.6265 20.4331 53.9102 20.1665C54.2108 19.8873 53.9779 19.3161 54.0202 18.876V18.8253C53.9948 18.5164 54.1303 18.4191 54.4182 18.436C54.8289 18.4529 55.2395 18.4191 55.6502 18.4445C55.9889 18.4656 56.082 18.3302 56.0778 17.9875C56.0651 16.9551 56.082 15.9269 56.0863 14.8946C56.607 14.8819 57.132 14.8607 57.6527 14.8607C57.8813 14.8607 58.0041 14.8099 57.9999 14.5349C57.9957 12.889 57.9957 11.2431 57.9999 9.59721C57.9999 9.33488 57.9025 9.25026 57.6612 9.25872ZM47.5935 7.72283C47.0304 7.72283 46.5732 7.25318 46.5732 6.66928C46.5732 6.08962 47.0304 5.61574 47.5935 5.61574C48.1524 5.61574 48.6096 6.08962 48.6096 6.66928C48.6096 7.25318 48.1524 7.72283 47.5935 7.72283Z" fill="#58B665"/>
        <path d="M48.6096 6.66927C48.6096 7.25316 48.1524 7.72281 47.5936 7.72281C47.0305 7.72281 46.5732 7.25316 46.5732 6.66927C46.5732 6.08961 47.0305 5.61572 47.5936 5.61572C48.1524 5.61572 48.6096 6.08961 48.6096 6.66927Z" fill="#3D3D3D"/>
        <path d="M37.1865 9.90184C37.1908 9.86799 37.2119 9.82568 37.2585 9.7749C37.2162 9.79183 37.195 9.84683 37.1865 9.90184Z" fill="#DF4923"/>
        <path d="M37.2634 9.76652C37.2592 9.77075 37.2592 9.77075 37.2592 9.77498C37.2126 9.82575 37.1915 9.86806 37.1872 9.90191C37.1534 10.0458 37.056 10.0838 36.9163 10.0881C36.6453 10.0923 36.6411 10.1008 36.6284 10.3716C36.6242 10.4604 36.6326 10.5535 36.5056 10.562C36.3786 10.5747 36.3405 10.4943 36.3278 10.3927C36.3066 10.2404 36.2135 10.1981 36.0695 10.2023C35.9425 10.2066 35.8155 10.1981 35.6843 10.2023C35.5361 10.2066 35.4599 10.1473 35.4557 9.995C35.4514 9.85537 35.4006 9.77921 35.2313 9.79613C35.2143 9.78767 35.1932 9.77921 35.1762 9.76652C35.0958 9.71997 34.9518 9.8046 34.9222 9.69882C34.8841 9.57612 34.9053 9.43649 34.9053 9.30533C34.9053 9.2207 34.9645 9.20801 35.0281 9.20801C35.4218 9.20801 35.8155 9.20801 36.2093 9.20378C36.3066 9.20378 36.3405 9.25878 36.3405 9.34341C36.3405 9.42803 36.3447 9.51688 36.3405 9.6015C36.3363 9.72421 36.3998 9.76229 36.5183 9.76229C36.6453 9.76652 36.658 9.69459 36.658 9.59727C36.6538 9.55073 36.6623 9.50419 36.6538 9.45765C36.6157 9.25032 36.7046 9.19109 36.912 9.20378C37.1618 9.2207 37.1618 9.20801 37.1618 9.4788C37.1618 9.63958 37.2973 9.72421 37.2634 9.76652Z" fill="#58B665"/>
        <path d="M39.1007 10.909C39.1007 10.6213 39.1007 10.6128 38.7959 10.617C38.618 10.6213 38.5503 10.5578 38.563 10.3843C38.5672 10.2955 38.5969 10.1389 38.5334 10.122C38.3429 10.067 38.3301 9.89775 38.2412 9.77928C37.9322 9.70735 37.6189 9.75812 37.3056 9.75812C37.2887 9.75812 37.276 9.76235 37.2633 9.76658C37.259 9.77081 37.259 9.77081 37.259 9.77504C37.2125 9.82582 37.1913 9.86813 37.1871 9.90198C37.1532 10.0458 37.0558 10.0839 36.9161 10.0881C36.6451 10.0924 36.6409 10.1008 36.6282 10.3716C36.624 10.4605 36.6324 10.5536 36.5054 10.562C36.3784 10.5747 36.3403 10.4943 36.3276 10.3928C36.3065 10.2405 36.2133 10.1982 36.0694 10.2024C35.9424 10.2066 35.8153 10.1982 35.6841 10.2024C35.5359 10.2066 35.4597 10.1474 35.4555 9.99506C35.4555 9.85544 35.3962 9.76658 35.2311 9.7962C35.2184 9.85544 35.2099 9.91467 35.1972 9.96968C35.1972 9.97391 35.1972 9.97391 35.1972 9.97814C35.1845 10.0162 35.1676 10.0543 35.1295 10.0628C34.9432 10.0839 34.9559 10.2151 34.9559 10.3462C34.9517 10.6043 34.9517 10.6043 34.685 10.6086C34.6511 10.6086 34.6172 10.617 34.5833 10.6086C34.3801 10.5832 34.3251 10.672 34.3293 10.8624C34.342 11.3871 34.3336 11.916 34.3336 12.4406C34.3336 12.8511 34.3336 12.8553 34.7485 12.8595C34.9178 12.8638 34.9601 12.9357 34.9559 13.0795C34.9517 13.2784 34.9559 13.4815 34.9517 13.6804C34.9474 13.7988 34.9855 13.8792 35.121 13.8665C35.3158 13.8454 35.3793 13.9427 35.3623 14.1162C35.3454 14.2685 35.4216 14.315 35.5656 14.3066C35.7434 14.2981 35.9212 14.2981 36.0948 14.3108C36.2895 14.3235 36.3954 14.2685 36.3657 14.0569C36.3488 13.9173 36.4208 13.8708 36.5605 13.875C36.7425 13.8835 36.9288 13.8835 37.1109 13.875C37.259 13.8708 37.3522 13.9131 37.3395 14.0738C37.331 14.1966 37.386 14.2389 37.5088 14.2346C37.7163 14.2262 37.9279 14.2304 38.1396 14.2346C38.2582 14.2346 38.3174 14.1881 38.309 14.0696C38.309 13.9977 38.2963 13.8961 38.3894 13.8877C38.5545 13.8665 38.5418 13.7523 38.5461 13.6507C38.5545 13.4984 38.5461 13.3461 38.5503 13.1895C38.5503 12.8638 38.5503 12.8553 38.8763 12.8638C39.0583 12.868 39.1049 12.8003 39.1007 12.631C39.0922 12.0556 39.1007 11.4844 39.1007 10.909ZM35.7899 11.1671C35.7857 11.1798 35.7815 11.2009 35.7772 11.2009C35.4936 11.2052 35.5656 11.4125 35.5486 11.5775C35.5359 11.7256 35.6164 11.8906 35.4936 12.026C35.4767 12.0302 35.4639 12.0345 35.4512 12.0387C34.9728 12.136 34.9093 12.0852 34.9093 11.6198C34.9093 11.6156 34.9051 11.6071 34.9093 11.5987C34.9178 11.4506 34.8458 11.2686 34.939 11.1544C35.0321 11.0444 35.2184 11.1248 35.3666 11.1121C35.5783 11.0909 35.5063 10.9259 35.4936 10.8244C35.4809 10.6636 35.5444 10.6255 35.6883 10.634C35.7899 10.6382 35.845 10.672 35.8323 10.7778C35.8196 10.9048 35.8661 11.0444 35.7899 11.1671Z" fill="#DF4923"/>
        <path d="M35.7898 11.167C35.7856 11.1797 35.7814 11.2009 35.7771 11.2009C35.4935 11.2051 35.5654 11.4124 35.5485 11.5775C35.5358 11.7255 35.6162 11.8906 35.4935 12.0259C35.4765 12.0302 35.4638 12.0344 35.4511 12.0386C34.9727 12.136 34.9092 12.0852 34.9092 11.6198C34.9092 11.6155 34.905 11.6071 34.9092 11.5986C34.9177 11.4505 34.8457 11.2686 34.9389 11.1543C35.032 11.0443 35.2183 11.1247 35.3665 11.112C35.5781 11.0909 35.5062 10.9259 35.4935 10.8243C35.4808 10.6635 35.5443 10.6255 35.6882 10.6339C35.7898 10.6381 35.8449 10.672 35.8322 10.7778C35.8195 10.9047 35.866 11.0443 35.7898 11.167Z" fill="#FEF4F2"/>
    </symbol>
</svg>