<svg width="59" height="59" viewBox="0 0 59 59" fill="none" xmlns="http://www.w3.org/2000/svg">
<path d="M29.3958 1.09553L32.1944 12.2771C32.5754 13.7993 34.4809 14.3099 35.572 13.1821L43.5865 4.89792L40.4194 15.9808C39.9882 17.4895 41.3832 18.8845 42.8919 18.4533L53.9748 15.2862L45.6906 23.3007C44.5628 24.3918 45.0734 26.2973 46.5956 26.6783L57.7772 29.4769L46.5956 32.2756C45.0734 32.6566 44.5628 34.5621 45.6906 35.6531L53.9748 43.6676L42.8919 40.5005C41.3832 40.0694 39.9882 41.4643 40.4194 42.9731L43.5865 54.0559L35.572 45.7717C34.4809 44.644 32.5754 45.1545 32.1944 46.6768L29.3958 57.8583L26.5971 46.6768C26.2161 45.1546 24.3106 44.644 23.2195 45.7717L15.2051 54.0559L18.3721 42.9731C18.8033 41.4643 17.4084 40.0694 15.8996 40.5005L4.81674 43.6676L13.1009 35.6531C14.2287 34.5621 13.7181 32.6566 12.1959 32.2756L1.01435 29.4769L12.1959 26.6783C13.7181 26.2973 14.2287 24.3918 13.1009 23.3007L4.81674 15.2862L15.8996 18.4533C17.4083 18.8845 18.8033 17.4895 18.3721 15.9808L15.2051 4.89792L23.2195 13.1821C24.3106 14.3099 26.2161 13.7993 26.5971 12.2771L29.3958 1.09553Z" stroke="#58C067" stroke-width="2"/>
</svg>
