<svg width="124" height="124" viewBox="0 0 124 124" fill="none" xmlns="http://www.w3.org/2000/svg">
<path d="M62 1.1186L69.0045 29.1039C69.3854 30.6261 71.291 31.1367 72.382 30.0089L92.4407 9.27516L84.5141 37.0134C84.0829 38.5221 85.4779 39.9171 86.9866 39.4859L114.725 31.5593L93.9911 51.618C92.8633 52.709 93.3739 54.6146 94.8961 54.9955L122.881 62L94.8961 69.0045C93.3739 69.3854 92.8633 71.291 93.9911 72.382L114.725 92.4407L86.9866 84.5141C85.4779 84.0829 84.0829 85.4779 84.5141 86.9866L92.4407 114.725L72.382 93.9911C71.291 92.8633 69.3855 93.3739 69.0045 94.8961L62 122.881L54.9955 94.8961C54.6146 93.3739 52.709 92.8633 51.618 93.9911L31.5593 114.725L39.4859 86.9866C39.9171 85.4779 38.5221 84.0829 37.0134 84.5141L9.27516 92.4407L30.0089 72.382C31.1367 71.291 30.6261 69.3855 29.1039 69.0045L1.1186 62L29.1039 54.9955C30.6261 54.6146 31.1367 52.709 30.0089 51.618L9.27516 31.5593L37.0134 39.4859C38.5221 39.9171 39.9171 38.5221 39.4859 37.0134L31.5593 9.27516L51.618 30.0089C52.709 31.1367 54.6146 30.6261 54.9955 29.1039L62 1.1186Z" fill="#58C067" stroke="black" stroke-width="2"/>
</svg>
