<svg width="100" height="100" viewBox="0 0 100 100" fill="none" xmlns="http://www.w3.org/2000/svg">
<path d="M36.6769 29.5238C38.0155 29.5238 39.0578 30.5683 39.0476 31.9098C39.0476 33.2513 38.0053 34.2959 36.6565 34.2856C35.3179 34.2856 34.2756 33.2309 34.2858 31.8894C34.2858 30.5581 35.3281 29.5238 36.6769 29.5238Z" fill="#58B765"/>
<path d="M48.1055 29.5238C49.4441 29.5238 50.4864 30.5661 50.4762 31.9149C50.4762 33.2536 49.4339 34.2959 48.0851 34.2856C46.7465 34.2856 45.7042 33.2331 45.7144 31.8945C45.7144 30.5559 46.7567 29.5238 48.1055 29.5238Z" fill="#58B765"/>
<path d="M0.988825 100C0.195369 99.4979 -0.00550535 98.775 0.00453839 97.8512C0.0447133 93.0716 0.094932 88.282 0.00453839 83.5024C-0.12603 77.2568 2.56569 72.4772 7.4369 68.8222C11.1832 66.0106 15.4418 64.3137 20.0016 63.2895C22.6933 62.687 25.3549 61.9641 28.1471 61.2612C28.1471 60.3173 28.1471 59.3534 28.1471 58.3894C28.1471 56.3109 28.1672 54.2223 28.127 52.1438C28.117 51.7622 27.9663 51.3104 27.7253 51.0192C25.2545 47.9767 23.8986 44.4924 23.4667 40.6165C23.4165 40.2048 23.1252 39.7329 22.7938 39.4718C19.4894 36.821 16.9182 33.6881 15.944 29.4507C15.7833 28.7579 15.6527 28.0349 15.6627 27.3321C15.6929 24.0787 15.5322 20.8053 15.8736 17.5921C16.7474 9.25796 23.527 2.02832 31.7528 0.451853C33.1489 0.180741 34.5851 0.060247 36.0113 0.0401647C40.3 -0.0200823 44.5987 0 48.8975 0.0200823C58.7001 0.060247 67.5487 7.83211 68.5129 17.6022C68.8945 21.4881 68.8945 25.4945 68.3923 29.3604C67.8399 33.6781 64.9373 36.8109 61.6028 39.4819C61.2713 39.7429 60.9801 40.2249 60.9299 40.6366C60.498 44.5125 59.132 47.9968 56.6613 51.0292C56.4905 51.2401 56.2796 51.5212 56.2796 51.7723C56.2495 54.9252 56.2595 58.0781 56.2595 61.2612C59.4936 62.0745 62.6674 62.8678 65.9316 63.6811C67.5386 59.4136 71.074 59.0521 75.0212 59.4638C75.0212 58.8312 75.0112 58.3492 75.0212 57.8673C75.0513 56.8631 75.6038 56.2607 76.588 56.2607C80.7562 56.2406 84.9143 56.2406 89.0825 56.2607C90.0165 56.2607 90.579 56.8531 90.6292 57.7869C90.6493 58.2689 90.6292 58.7609 90.6292 59.3734C91.8646 59.3734 93.0698 59.4437 94.2449 59.3634C97.1275 59.1525 99.0659 60.3273 100 63.0887C100 73.7022 100 84.3157 100 94.9192C99.769 95.4815 99.5782 96.0639 99.307 96.6061C98.403 98.4436 96.796 99.3975 94.9179 99.99C63.6216 100 32.3052 100 0.988825 100ZM26.5803 32.8346C26.6405 32.8346 26.6907 32.8346 26.751 32.8346C26.751 35.5658 26.5401 38.3171 26.7912 41.0182C27.5846 49.6937 36.4432 56.1603 44.9904 54.4332C52.6739 52.8768 57.8163 46.6211 57.8364 38.769C57.8464 35.3248 57.7159 31.8606 57.8866 28.4265C57.977 26.579 57.4246 25.6351 55.7172 24.8519C53.9595 24.0486 52.463 23.7574 50.5145 24.2494C44.7896 25.6853 39.7476 24.3197 35.8506 19.7108C35.1777 18.9176 34.6052 18.8172 33.7013 19.0581C30.6379 19.8815 28.5689 21.8797 27.0523 24.5406C26.7811 25.0226 26.6305 25.6351 26.6104 26.1874C26.5501 28.4065 26.5803 30.6155 26.5803 32.8346ZM65.6705 20.7049C65.6002 20.0321 65.55 19.4497 65.4897 18.8774C64.5657 9.9508 57.053 3.15293 48.0839 3.13284C44.1468 3.1228 40.2096 3.11276 36.2725 3.14289C35.238 3.15293 34.1834 3.19309 33.169 3.40396C26.6506 4.73943 22.2615 8.60528 19.861 14.7605C19.1178 16.6483 18.8165 18.6264 18.7763 20.7451C21.0763 19.992 23.1453 20.2229 25.0235 21.7291C25.3148 21.3576 25.5458 21.0463 25.7868 20.7451C28.3078 17.6423 31.4716 15.7646 35.5594 15.6241C36.4834 15.5939 37.0659 15.9454 37.538 16.7286C38.8839 18.9276 40.8223 20.3936 43.293 21.1166C46.2158 21.9801 49.0883 21.6086 51.9005 20.6145C52.8748 20.2731 53.6883 20.3133 54.5822 20.8053C55.8477 21.5082 57.1735 22.1107 58.4491 22.7432C60.739 20.3434 61.9342 20.0121 65.6705 20.7049ZM12.509 96.827C19.0173 96.827 25.4052 96.827 31.8834 96.827C31.7026 96.3952 31.562 96.0337 31.4013 95.6923C29.3724 91.2341 27.3235 86.7858 25.3348 82.3075C25.0938 81.7652 25.0637 81.0523 25.1741 80.4699C25.4453 79.014 25.8571 77.5781 26.2287 76.0619C25.5056 75.8209 24.8527 75.5598 24.1698 75.3891C23.0248 75.0979 22.151 74.4854 21.4379 73.5214C20.1021 71.7241 18.6156 70.0372 17.2697 68.2398C16.7977 67.6072 16.3758 67.5369 15.733 67.8582C14.2265 68.6214 12.6596 69.264 11.2133 70.1275C5.83995 73.3407 2.82683 77.8894 3.09801 84.396C3.25871 88.1916 3.12814 92.0072 3.12814 95.8128C3.12814 96.1542 3.12814 96.4956 3.12814 96.827C5.28754 96.827 7.31638 96.827 9.38539 96.827C9.38539 93.7243 9.37535 90.7019 9.38539 87.6795C9.38539 86.6051 9.99806 85.9624 10.9522 85.9725C11.8963 85.9825 12.4889 86.6252 12.4989 87.7096C12.519 90.7019 12.509 93.7243 12.509 96.827ZM74.981 62.5063C74.0771 62.5063 73.2736 62.5063 72.4601 62.5063C69.9893 62.5163 68.764 63.7413 68.764 66.2316C68.764 75.2084 68.764 84.1952 68.764 93.172C68.764 95.6622 69.9793 96.8772 72.4802 96.8772C79.3501 96.8772 86.2099 96.8772 93.0799 96.8772C95.7113 96.8772 96.8864 95.6923 96.8965 93.0616C96.8965 83.663 96.8965 74.2544 96.8965 64.8559C96.8965 64.5647 96.9166 64.2635 96.8764 63.9823C96.7659 63.2292 96.3441 62.6167 95.6008 62.5766C93.9637 62.4862 92.3165 62.5464 90.6493 62.5464C90.6493 62.8477 90.6493 63.0385 90.6493 63.2393C90.6292 65.3178 90.3078 65.6291 88.1886 65.6291C84.6431 65.6291 81.0977 65.5789 77.5522 65.6492C75.5636 65.6893 74.8505 65.1772 75.0313 63.1087C75.0313 62.9481 75.0011 62.7874 74.981 62.5063ZM31.2606 54.393C31.3711 58.3794 30.6882 62.3155 32.6166 65.9604C32.8174 66.342 33.169 66.7637 33.5607 66.9144C36.2122 67.9586 38.8939 68.9527 41.5756 69.9267C41.9371 70.0572 42.4192 70.0773 42.7708 69.9468C45.5228 68.9628 48.2547 67.9386 50.9765 66.8842C51.2879 66.7637 51.6093 66.4424 51.77 66.1311C53.6582 62.4259 53.146 58.4396 53.1259 54.4332C45.8341 58.9818 38.6328 59.0019 31.2606 54.393ZM65.6404 70.4288C63.5011 72.8487 61.8639 75.7707 58.1277 75.9112C58.5394 77.5881 58.9512 79.024 59.2325 80.49C59.3429 81.0523 59.3229 81.7351 59.0918 82.2372C57.0931 86.7457 55.0241 91.224 52.9853 95.7225C52.8246 96.0639 52.694 96.4253 52.5232 96.837C57.1835 96.837 61.7534 96.837 66.474 96.837C65.4596 95.2104 65.6404 93.4732 65.6303 91.7562C65.6303 84.9884 65.6303 78.2207 65.6303 71.453C65.6404 71.1116 65.6404 70.7702 65.6404 70.4288ZM55.7272 64.394C51.9608 75.2184 48.2145 85.9825 44.428 96.8872C45.7839 96.8872 46.9791 96.8571 48.1743 96.8973C48.7769 96.9174 49.0782 96.7366 49.3394 96.1643C51.4887 91.3646 53.6883 86.595 55.8377 81.7954C56.0285 81.3636 56.0386 80.7812 55.9381 80.3193C55.6067 78.7629 55.1848 77.2367 54.8132 75.6903C54.5219 74.4854 54.8634 73.8528 56.0386 73.4411C56.7717 73.18 57.515 72.9491 58.2482 72.688C58.8809 72.4571 59.7045 72.3667 60.1063 71.9149C61.5927 70.248 62.9286 68.4607 64.4351 66.583C61.4421 65.8199 58.6298 65.117 55.7272 64.394ZM20.0016 66.573C20.6143 67.3461 21.2069 67.9486 21.6387 68.6515C23.1955 71.1618 25.3047 72.8688 28.2777 73.3909C28.3379 73.4009 28.4082 73.421 28.4685 73.4511C29.513 73.8528 29.8947 74.5055 29.6537 75.5799C29.4729 76.4033 29.3323 77.2467 29.0209 78.0299C28.1873 80.0984 28.5087 81.946 29.493 83.9442C31.6021 88.1815 33.4602 92.5495 35.4188 96.8471C36.9253 96.8471 38.3817 96.8471 39.9786 96.8471C36.2022 85.9825 32.4458 75.1983 28.6895 64.4041C25.7366 65.1371 22.9545 65.84 20.0016 66.573ZM50.2132 70.5794C48.1341 71.3525 46.256 71.955 44.4682 72.7583C42.9315 73.4511 41.5555 73.4712 40.0087 72.7784C38.1908 71.9651 36.2825 71.3626 34.1834 70.5794C36.8751 78.3111 39.4764 85.8018 42.0878 93.3025C42.1581 93.3025 42.2385 93.2925 42.3088 93.2925C44.9201 85.8118 47.5215 78.3312 50.2132 70.5794ZM23.3361 35.7666C23.4064 35.5357 23.4466 35.4554 23.4466 35.365C23.4466 32.0213 23.4768 28.6776 23.4265 25.3339C23.4165 24.8921 23.0951 24.3298 22.7436 24.0386C21.2772 22.8336 19.2483 23.5365 18.9571 25.4142C18.2841 29.6917 20.4636 32.8145 23.3361 35.7666ZM60.9499 35.847C63.0491 33.8387 64.6561 31.7803 65.2286 29.1294C65.4998 27.8642 65.5198 26.4986 65.3993 25.2033C65.2888 24.0185 64.1941 23.3457 63.0692 23.4662C61.8338 23.5967 60.96 24.3298 60.9499 25.3439C60.9399 28.7479 60.9499 32.1619 60.9499 35.847ZM78.1749 62.436C81.3287 62.436 84.4021 62.436 87.4654 62.436C87.4654 61.4017 87.4654 60.4378 87.4654 59.4337C84.3519 59.4337 81.2785 59.4337 78.1749 59.4337C78.1749 60.4478 78.1749 61.4118 78.1749 62.436Z" fill="#58B765"/>
<path d="M42.6682 48.5691C40.4975 48.61 38.7728 48.1197 37.2265 47.0064C36.1858 46.2608 35.9182 45.3415 36.4732 44.4938C37.0382 43.6358 37.9204 43.5847 38.9809 44.3406C40.9038 45.7194 43.8278 45.7297 45.7805 44.3508C46.8609 43.595 47.7232 43.646 48.2882 44.4938C48.8432 45.3313 48.5756 46.2404 47.5448 47.0064C46.1274 48.0482 44.3928 48.5691 42.6682 48.5691Z" fill="#58B765"/>
<path d="M43.8036 38.0021C43.8036 38.7963 43.8218 39.5905 43.7944 40.3748C43.767 41.2769 43.2094 41.8847 42.4232 41.9044C41.5913 41.924 40.988 41.3161 40.9697 40.365C40.9423 38.8453 40.9514 37.3256 40.9697 35.8059C40.9788 34.8941 41.5548 34.3058 42.3409 34.2862C43.1728 34.2666 43.767 34.8745 43.7944 35.8157C43.8218 36.5413 43.8036 37.2766 43.8036 38.0021Z" fill="#58B765"/>
<path d="M81.4282 74.9616C81.807 71.4693 83.5988 69.1777 86.6909 68.7474C88.7387 68.4572 90.8581 68.5973 92.9468 68.6674C93.7454 68.6974 94.2164 69.3378 94.2164 70.1584C94.2266 71.3892 94.4007 72.6601 94.155 73.8409C93.9195 74.9916 93.2642 76.0524 92.7113 77.3432C94.6157 81.6561 93.899 86.0991 91.4827 90.322C89.8137 93.2439 86.7626 94.0345 83.5886 92.7036C83.2814 92.5735 82.8207 92.5835 82.5033 92.7136C79.5852 93.9644 76.6672 93.324 74.9573 90.7723C72.5716 87.1999 71.8037 83.2272 72.8174 79.0644C73.7389 75.2818 77.0972 73.6007 80.8548 74.8015C81.0493 74.8616 81.2336 74.9016 81.4282 74.9616ZM75.5204 82.2265C75.6842 84.468 76.1655 86.5694 77.2712 88.4907C78.377 90.412 80.0562 90.7122 81.8275 89.3813C82.8104 88.6408 83.3531 88.6408 84.3053 89.3613C86.0766 90.7122 87.8172 90.4521 88.841 88.5007C89.4861 87.2799 89.9059 85.929 90.2335 84.5881C90.6533 82.8369 90.6943 81.0457 90.0287 79.3246C89.4349 77.7935 88.0629 77.1631 86.4964 77.7435C85.7387 78.0237 85.022 78.474 84.3667 78.9443C83.3326 79.6848 82.8207 79.6848 81.7968 78.9643C81.1108 78.474 80.3634 78.0237 79.575 77.7335C78.1006 77.1931 76.7081 77.7835 76.1757 79.2245C75.8276 80.1751 75.7252 81.2258 75.5204 82.2265ZM84.7251 75.0117C86.138 74.4213 87.5305 74.2511 88.9639 74.5914C90.3769 74.9316 91.0014 74.4813 91.0424 73.0303C91.0526 72.62 91.0424 72.2098 91.0424 71.7394C89.8137 71.7394 88.6875 71.6594 87.5817 71.7595C85.8616 71.9096 84.766 73.1704 84.7251 75.0117Z" fill="#58B765"/>
</svg>
