<svg width="100" height="108" viewBox="0 0 100 108" fill="none" xmlns="http://www.w3.org/2000/svg">
<path d="M37.0457 14.3603C37.155 13.6248 37.2642 12.9208 37.3844 12.1433C34.729 11.723 32.1719 11.3237 29.6149 10.9244C26.0087 10.3676 22.4026 9.84219 18.7965 9.2748C16.9934 8.9911 16.0755 9.60052 15.8132 11.3342C15.4417 13.6984 15.0483 16.052 14.6658 18.4161C14.5347 19.2252 14.1304 19.8241 13.1906 19.7085C12.2945 19.5929 12.076 18.952 12.2071 18.1639C12.6442 15.5161 12.9939 12.8578 13.5403 10.2415C14.0539 7.79327 16.3487 6.50088 18.9058 6.90015C25.1455 7.87733 31.3852 8.81248 37.756 9.77915C37.9199 8.86501 38.1057 7.99291 38.2368 7.1103C38.4772 5.5237 38.7832 5.26102 40.466 5.50269C42.6188 5.8179 44.7606 6.17515 46.968 6.52189C47.1538 5.47116 47.3068 4.47297 47.5253 3.48529C48.0389 1.11065 50.3774 -0.37088 52.8689 0.0809331C55.2184 0.501224 56.8466 2.80232 56.4423 5.11392C56.2893 5.99653 56.1691 6.88965 56.0161 7.89834C57.8847 8.19255 59.655 8.50776 61.4253 8.74943C64.3758 9.14871 64.4522 9.22226 63.9714 12.0067C63.884 12.5426 63.7966 13.0679 63.6873 13.7194C66.146 14.1081 68.5501 14.4864 70.9542 14.8542C74.8882 15.4531 78.8331 16.0205 82.7779 16.6404C85.4115 17.0607 87.0288 19.2357 86.6135 21.7995C85.4552 28.9864 84.2641 36.1734 83.0948 43.3499C83.0293 43.7386 83.0074 44.1379 82.9418 44.7789C83.4117 44.4636 83.7286 44.2535 84.0346 44.0329C87.302 41.7633 90.5694 39.4937 93.8476 37.2241C95.7928 35.8792 97.9783 36.0999 99.2568 37.739C100.546 39.3886 100.131 41.4586 98.2187 42.8665C97.8035 43.1713 97.3991 43.476 96.9948 43.7702C98.8416 47.101 98.6449 47.868 95.4431 50.0956C94.8967 50.4738 94.394 50.9992 93.7712 51.1883C93.2685 51.3459 92.4489 51.2829 92.0992 50.9677C91.531 50.4633 91.7605 49.7593 92.3943 49.2865C93.1374 48.7296 93.9023 48.2042 94.6563 47.6579C96.0441 46.6597 96.055 46.5336 94.8749 45.1256C91.8916 47.1955 88.8974 49.276 85.9142 51.3459C85.2367 51.8082 84.5701 52.2916 83.9035 52.7539C81.2371 54.5927 81.2699 54.6032 80.7782 57.6503C79.2155 67.4115 77.631 77.1728 76.0574 86.934C75.1395 92.6185 74.2216 98.3029 73.3036 103.987C72.8556 106.761 70.6154 108.369 67.7196 107.928C59.4692 106.667 51.2298 105.364 42.9794 104.103C32.314 102.474 21.6486 100.856 10.9723 99.2381C8.59006 98.8808 6.20783 98.5236 3.83653 98.1453C1.21389 97.725 -0.348764 95.4975 0.0664874 92.9757C1.26853 85.6101 2.42686 78.2445 3.61798 70.8789C4.71074 64.0492 5.82536 57.2195 6.92906 50.3898C7.84698 44.7053 8.7649 39.0209 9.66097 33.3259C9.7921 32.4538 10.109 31.8444 11.1471 31.96C11.9776 32.0546 12.2727 32.727 12.0978 33.8303C10.9941 40.6915 9.90138 47.5633 8.79769 54.4351C7.70492 61.2648 6.60123 68.0945 5.49753 74.9242C4.50312 81.1235 3.5087 87.3123 2.51428 93.5011C2.32851 94.6884 2.9951 95.6341 4.29549 95.8442C8.04368 96.4536 11.8028 97.0105 15.551 97.5779C22.4573 98.6392 29.3635 99.7109 36.2807 100.762C45.0884 102.107 53.8961 103.43 62.7038 104.754C64.343 105.007 65.9712 105.248 67.5994 105.532C69.7194 105.9 70.5717 105.395 70.9105 103.378C71.9705 97.0526 72.9758 90.7272 74.003 84.3913C75.1067 77.5931 76.1995 70.8054 77.2922 64.0072C77.6747 61.6115 78.0572 59.2264 78.4615 56.6836C76.9644 57.5977 75.7514 58.2597 75.4673 60.2035C73.7408 71.667 71.8066 83.0884 69.9489 94.5308C69.5555 96.958 69.173 99.3957 68.7796 101.823C68.6048 102.895 68.0802 103.231 66.9765 103.063C56.3876 101.445 45.7987 99.8265 35.1989 98.2189C25.8339 96.8004 16.458 95.4029 7.09297 94.0054C5.14785 93.7112 4.91837 93.4591 5.21341 91.5993C6.37175 84.3388 7.57379 77.0887 8.74305 69.8282C9.91231 62.5677 11.0597 55.3072 12.229 48.0466C13.4747 40.3238 14.7423 32.6009 15.999 24.8781C16.6328 20.9799 17.2557 17.0817 17.8676 13.1835C18.0753 11.8806 18.4577 11.5549 19.8237 11.765C25.3968 12.6056 30.9699 13.4672 36.543 14.3183C36.6851 14.3498 36.8381 14.3498 37.0457 14.3603ZM20.2062 14.2027C16.0427 40.0611 11.8902 65.8249 7.71585 91.6938C27.3419 94.6989 46.8587 97.683 66.4411 100.688C68.6266 87.2493 70.7794 73.9786 72.9867 60.4347C72.0033 61.1072 71.3039 61.6535 70.528 62.0843C70.0254 62.368 69.4462 62.5992 68.878 62.6622C67.7196 62.7988 66.5504 62.8093 65.3811 62.8619C64.0151 62.9249 63.4578 62.1684 63.9277 60.9075C64.2883 59.9514 64.6052 58.9742 65.097 58.0916C65.4794 57.3876 65.993 56.6731 66.6487 56.1898C68.9763 54.4666 71.4132 52.88 73.7517 51.1673C74.1997 50.8416 74.5822 50.2321 74.6696 49.7068C75.369 45.714 75.9919 41.7002 76.6366 37.697C77.4015 32.8741 78.1665 28.0513 78.9423 23.1444C73.4457 22.3038 68.0037 21.4842 62.5181 20.6437C62.3978 21.3897 62.2886 21.9886 62.2012 22.598C61.9935 24.006 61.5236 24.3632 60.0812 24.1426C52.5739 22.9973 45.0666 21.8415 37.5593 20.6857C36.4774 20.5176 36.1387 20.0027 36.3245 18.91C36.4447 18.206 36.543 17.4915 36.6632 16.6929C31.1775 15.8734 25.7574 15.0433 20.2062 14.2027ZM38.8706 18.5107C45.9736 19.5929 52.8908 20.6437 59.8736 21.7049C60.4746 18.0904 61.0319 14.6755 61.6111 11.2081C54.5409 10.1154 47.6237 9.04364 40.63 7.9719C40.0289 11.5759 39.4607 14.9908 38.8706 18.5107ZM77.3797 48.6666C77.9698 48.2673 78.3304 47.9416 78.7675 47.7524C79.9367 47.2166 80.2536 46.2604 80.3738 45.1361C80.494 43.9908 80.7126 42.8455 80.8984 41.7002C81.9911 34.9861 83.0948 28.2719 84.1876 21.5578C84.428 20.0763 83.7177 19.2042 82.1878 18.9625C77.6201 18.248 73.0632 17.5335 68.4955 16.8295C66.8017 16.5668 65.097 16.3357 63.3267 16.073C63.1846 16.8821 63.0754 17.544 62.9442 18.269C63.4251 18.3636 63.8622 18.4792 64.2993 18.5422C69.6429 19.3513 74.9974 20.1498 80.3411 20.9589C81.2808 21.0955 81.7617 21.5893 81.6196 22.5245C81.401 23.9535 81.1606 25.3824 80.9312 26.8114C79.751 34.0194 78.5817 41.2274 77.3797 48.6666ZM93.4324 43.2448C92.9625 42.6144 92.5254 42.0365 92.0774 41.4376C91.837 41.5952 91.684 41.6897 91.531 41.7948C83.7396 47.1955 75.9481 52.5753 68.1895 58.018C67.5011 58.5014 67.1405 59.426 66.5504 60.2666C68.1349 60.5083 69.1293 60.193 70.1456 59.468C74.2871 56.505 78.4943 53.6365 82.6796 50.7365C86.2529 48.2568 89.8153 45.7666 93.4324 43.2448ZM49.4814 6.93167C50.902 7.13131 52.2351 7.33095 53.6011 7.52008C53.765 6.49037 53.9071 5.63928 54.0273 4.78819C54.1802 3.65341 53.459 2.65521 52.3553 2.44507C51.2844 2.24543 50.2572 2.85485 49.984 3.94761C49.7436 4.88276 49.6453 5.85993 49.4814 6.93167ZM95.5196 41.8473C96.0769 41.4586 96.5577 41.1434 97.0276 40.7966C97.6068 40.3658 97.7925 39.7984 97.3554 39.1995C96.8855 38.5481 96.2299 38.5691 95.5851 38.9789C95.0934 39.2941 94.6454 39.6513 94.1099 40.0401C94.6017 40.66 95.0388 41.2274 95.5196 41.8473Z" fill="#58B765"/>
<path d="M10.7527 26.2144C11.1185 25.7762 11.4487 25.0836 11.8502 24.9564C12.4748 24.7585 12.8942 25.4652 12.9031 26.4971C12.912 27.4441 12.5194 28.1509 11.9305 28.0237C11.52 27.9247 11.1542 27.3028 10.7705 26.9211C10.7705 26.6667 10.7616 26.4405 10.7527 26.2144Z" fill="#58B765"/>
<path d="M44.5998 40.0795C45.1875 38.4819 45.6011 36.9355 46.3303 35.5529C46.7548 34.7541 47.6799 34.1704 48.4527 33.5559C49.0513 33.0848 49.7587 33.1053 50.2267 33.7505C50.6839 34.3752 50.4988 34.9794 49.8349 35.3993C47.8758 36.6078 47.3752 38.3897 47.4949 40.5199C48.4636 40.2741 49.3778 39.9874 50.3138 39.8133C55.7884 38.8301 60.8929 42.3633 61.2738 47.5555C61.3718 48.8664 61.0235 50.3206 60.4684 51.5496C58.727 55.3388 56.8115 59.0461 54.9177 62.7636C53.3177 65.8871 49.737 67.3311 46.4283 65.9179C43.6311 64.7197 40.8884 64.3407 37.83 64.607C34.0207 64.9347 31.3977 62.8046 30.7447 59.2304C30.3855 57.2846 30.1896 55.3183 29.9393 53.352C29.6781 51.355 29.493 49.3477 29.1774 47.361C28.5897 43.7151 29.7651 40.735 33.0956 38.7789C36.4804 36.7819 39.9415 37.0994 43.2611 39.1271C43.7617 39.4343 44.2406 39.7723 44.7413 40.0898C44.7304 40.0898 44.7739 40.0795 44.5998 40.0795ZM31.4303 45.9989C32.0181 50.3002 32.6058 54.8882 33.3024 59.466C33.4874 60.6847 34.3799 61.6371 35.6097 62.0058C36.5784 62.3028 37.7103 62.4359 38.6899 62.272C41.5305 61.8009 44.0774 62.3949 46.6242 63.5317C49.4104 64.7811 51.5872 63.9516 52.9042 61.3401C54.6456 57.8683 56.2999 54.3454 58.1284 50.9146C60.5664 46.3164 56.9094 41.9127 52.0117 41.9844C50.7056 42.0049 49.3669 42.4247 48.137 42.8958C46.4609 43.5205 45.0243 43.4488 43.642 42.3121C42.989 41.7795 42.2924 41.288 41.5632 40.8578C39.3211 39.5572 36.9485 39.3729 34.6193 40.5711C32.5187 41.6567 31.5065 43.4386 31.4303 45.9989Z" fill="#58B765"/>
<path d="M45.1299 74.7699C47.6244 75.1371 50.5104 75.5779 53.3965 75.9871C56.3609 76.4173 59.3252 76.8476 62.2896 77.2253C64.1129 77.4562 65.5336 78.8518 65.5895 80.5833C65.6454 82.4301 64.3814 84.0566 62.4574 84.1091C60.634 84.1616 58.7883 83.8782 56.9649 83.6264C52.703 83.0283 48.4634 82.3567 44.2014 81.7166C42.0984 81.4018 40.6777 79.7753 40.8791 77.9389C41.114 76.0291 42.6801 74.7384 45.1299 74.7699ZM44.9733 77.1309C44.179 77.0679 43.5526 77.2883 43.4631 78.1068C43.3736 78.8938 43.877 79.2506 44.6824 79.3765C50.1413 80.2055 55.6002 81.0765 61.0703 81.9055C61.898 82.0314 62.6587 81.832 62.7929 80.8981C62.9272 79.9432 62.2336 79.6703 61.3835 79.5549C59.1462 79.2296 56.8978 78.8938 54.6605 78.558C51.4277 78.0753 48.1949 77.6031 44.9733 77.1309Z" fill="#58B765"/>
<path d="M49.5955 93.4615C47.3814 93.0667 44.7143 92.6825 42.0883 92.0636C40.3789 91.6581 39.4521 89.6307 39.8949 87.838C40.3274 86.0986 42.006 84.9248 43.6845 85.1916C46.0015 85.5651 48.3082 85.9172 50.6252 86.312C52.6642 86.6535 53.9308 88.2648 53.7455 90.2176C53.5601 92.117 52.0257 93.4615 49.5955 93.4615ZM43.0151 87.4325C42.7783 87.7206 42.1913 88.1154 42.181 88.5209C42.1707 88.9371 42.6753 89.652 43.0563 89.7374C45.3013 90.2389 47.5771 90.6337 49.8632 90.9325C50.2339 90.9859 50.893 90.4203 51.0371 89.9935C51.1401 89.6947 50.6561 88.8517 50.3369 88.7877C48.0096 88.2755 45.6617 87.902 43.0151 87.4325Z" fill="#58B765"/>
<path d="M55.9141 90.8327C55.9254 88.7808 57.5867 87.2091 59.7114 87.2309C61.7231 87.2528 63.4296 88.9008 63.4409 90.8218C63.4522 92.7972 61.7118 94.4999 59.6662 94.4999C57.598 94.5108 55.9028 92.8518 55.9141 90.8327ZM58.2874 90.5707C58.2874 90.7454 58.2874 90.92 58.2761 91.0946C58.7169 91.4111 59.1237 91.935 59.6097 92.0005C60.333 92.0987 60.9546 91.5421 60.8077 90.8436C60.7172 90.4179 60.0844 89.8613 59.6323 89.7958C59.2367 89.7412 58.7508 90.287 58.2874 90.5707Z" fill="#58B765"/>
</svg>
